<svg width="169" height="165" viewBox="0 0 169 165" fill="none" xmlns="http://www.w3.org/2000/svg"><g id="free-icon-calendar-1253979-_2_ 1" opacity=".33" clip-path="url(#clip0_272_1502)"><g id="Group" fill="#fff"><path id="Vector" d="M24.101 34.081c-2.522 1.602-4.536 6.122-3.932 8.703.116.496-.456.735-5.19 1.982-4.47 1.185-5.563 1.58-6.69 2.438-1.592 1.245-2.883 3.187-3.417 5.231l-.41 1.527 14.532 62.563c8.01 34.387 14.708 62.87 14.908 63.277.192.373.704.917 1.153 1.196.735.456 1.28.398 5.78-.655l4.963-1.161 1.038 4.434c.565 2.416 1.31 4.859 1.649 5.408 1.215 1.914-.826 2.287 41.627-7.645l38.583-9.027 2.904.926c5.364 1.747 11.006 2.591 17.157 2.478 2.952-.063 4.637-.317 9.998-1.571 7.056-1.616 9.162-2.458 14.71-5.745 22.875-13.659 31.223-42.869 19.065-66.793-6.34-12.477-17.575-21.715-31.485-25.825-1.838-.547-3.472-.967-3.604-.936-.132.03-3.108-11.942-6.586-26.66-7.043-29.657-6.454-27.736-9.505-29.884-2.585-1.803-4.496-1.915-10.59-.663l-5.226 1.083-.408-.847c-1.971-4.25-5.526-6.316-9.714-5.72-4.519.673-7.904 4.85-7.585 9.348l.086 1.411-5.89 1.378c-5.923 1.386-5.923 1.386-6.101.625-.566-2.416-3.452-5.056-6.39-5.834-2.16-.577-5.999.32-7.678 1.796-2.289 2.001-3.704 5.648-3.139 8.063.178.761.178.761-5.745 2.147l-5.89 1.378-.549-1.302c-1.709-4.173-6.596-6.415-10.945-5.013-3.985 1.316-6.28 4.784-6.16 9.468l.018.973-5.725 1.34-5.757 1.346-.752-1.569c-2.462-5.008-8.405-6.689-13.108-3.669zm6.551 5.029c.972.575 1.044.733 2.182 5.597l1.161 4.963-2.812.658-2.813.658-1.161-4.963c-1.138-4.864-1.144-5.037-.527-5.984a2.832 2.832 0 013.97-.93zm29.177-6.861l1.113.577 1.153 4.93 1.146 4.898-2.856.772-2.888.781-1.154-4.93c-1.115-4.765-1.128-4.971-.535-6.018.796-1.372 2.475-1.8 4.021-1.01zm29.267-6.778c.947.617 1.05.907 2.248 5.582l1.253 4.907-3.011.705-3.011.704-1.055-4.953c-1-4.722-1.036-5.028-.461-6 .448-.768.957-1.131 1.817-1.333.86-.2 1.477-.1 2.22.389zm29.251-6.843c.995.675 1.075.865 2.19 5.63l1.153 4.93-2.902.575-2.935.582-1.146-4.897-1.153-4.93.741-1.012c1.035-1.394 2.73-1.755 4.052-.878zM22.453 52.545c1.285 5.493 1.785 5.69 10.123 3.74 8.339-1.951 8.7-2.35 7.414-7.843l-.735-3.143 5.757-1.347 5.758-1.347.945 3.443c.866 3.253.986 3.469 2.048 4.128l1.11.718 5.55-1.194c6.615-1.408 8.164-1.945 8.976-3.252.557-.898.546-1.245-.213-4.487l-.813-3.475 5.906-1.311 5.88-1.271.92 3.484c.832 3.26.968 3.543 1.933 4.085 1.013.6 1.112.577 7.962-1.025l6.915-1.618.651-1.095c.634-1.02.664-1.342.037-4.616l-.655-3.546 5.725-1.34 5.757-1.346.813 3.474c.759 3.243.902 3.559 1.801 4.116 1.306.811 2.933.605 9.487-1.068l5.503-1.392.677-1.135c.692-1.07.671-1.31-.004-4.641L127 24.735l4.987-1.062 4.986-1.061 1.011.74c1.011.74 1.019.774 2.831 8.517l1.811 7.743L78.433 54.63 14.239 69.65l-1.85-7.909-1.85-7.908.824-1.1c.8-1.06.924-1.124 5.59-2.215l4.764-1.115.736 3.143zm124.888 7.218l3.321 14.196-2.53-.072c-18.72-.506-36.776 10.035-45.783 26.731-5.547 10.302-7.397 21.938-5.238 33.404 1.68 8.82 4.977 15.902 11.332 24.117.242.293-6.815 2.049-34.644 8.559l-34.942 8.175-11.612-49.634-11.613-49.634 64.194-15.019 64.194-15.018 3.321 14.195zm-3.811 20.262c18.832-1.405 36.464 8.919 44.562 26.08 1.749 3.744 3.924 13.042 4.026 17.207.353 18.065-9.119 33.823-25.05 41.808-22.251 11.104-49.613 1.556-60.563-21.081-1.502-3.138-3.774-11.507-4.073-15.171-1.306-14.981 4.748-29.38 16.358-38.832 3.104-2.541 7.63-5.276 11.123-6.756 3.467-1.44 9.813-2.959 13.617-3.255zm-27.599 84.913c1.182.875 2.559 1.984 3.113 2.413l.977.748-33.42 7.819-33.453 7.827-.697-2.978-.697-2.978 31.038-7.262 31.005-7.253 2.134 1.664z"/><path id="Vector_2" d="M36.138 83.442c-6.16 3.954-5.644 12.872.947 15.832 5.895 2.67 12.387-1.502 12.594-8.077.115-3.237-2.303-6.86-5.44-8.185-2.67-1.12-5.912-.955-8.1.43zm6.127 5.302c2.197 1.336 1.652 4.674-.863 5.262-1.621.38-3.091-.533-3.47-2.154-.589-2.515 2.161-4.484 4.333-3.108z"/><path id="Vector_3" d="M65.338 76.68c-3.912 2.52-5.378 7.296-3.519 11.363 1.397 2.989 4.588 5.139 7.833 5.287 3.98.151 7.614-2.514 8.903-6.55.444-1.535.444-2.128-.09-4.411-.735-3.144-1.802-4.57-4.378-5.886-2.863-1.495-6.227-1.405-8.749.197zm5.989 5.16c1.528.864 1.956 2.544.985 4.062-1.488 2.442-5.312 1.313-5.285-1.555.05-2.176 2.386-3.525 4.3-2.507z"/><path id="Vector_4" d="M94.048 70.207c-1.866 1.274-3.752 4.402-3.848 6.38-.065 2.108.703 4.79 1.85 6.267 2.11 2.752 5.938 4.195 9.148 3.444 4.533-1.06 7.625-6.041 6.59-10.616-.627-2.68-1.448-3.954-3.57-5.412-3.205-2.216-6.947-2.248-10.17-.063zm6.619 4.873c2.146 1.417 1.619 4.682-.863 5.262-.86.202-1.477.102-2.179-.362-2.146-1.418-1.619-4.682.863-5.263.86-.201 1.477-.101 2.179.363z"/><path id="Vector_5" d="M40.735 107.565c-6.015 4.722-3.704 14.303 3.8 15.793 2.194.429 5.462-.37 7.164-1.746 1.82-1.473 3.22-4.139 3.353-6.403.151-2.339-.05-3.199-1.223-5.229-1.846-3.267-5.835-4.951-9.64-4.061-1.39.325-2.428.812-3.454 1.646zm7.133 4.683c1.378.968 1.659 2.613.616 3.974-1.144 1.524-2.804 1.738-4.27.545-.904-.731-1.188-2.689-.505-3.651 1.113-1.656 2.577-1.964 4.16-.868z"/><path id="Vector_6" d="M69.988 100.58c-2.42 1.893-3.621 4.512-3.502 7.556.23 4.867 4.458 8.764 9.276 8.474 5.61-.335 9.283-4.929 8.362-10.507-.288-1.677-.55-2.349-1.552-3.65-2.338-2.978-5.133-4.035-8.91-3.325-1.843.326-2.64.652-3.674 1.452zm6.976 4.755c.564.322.975.889 1.138 1.584.356 1.522.19 2.154-.77 2.972-2.414 2.065-5.894-.576-4.573-3.432.775-1.613 2.48-2.081 4.205-1.124z"/><path id="Vector_7" d="M47.466 130.071c-5.785 3.168-6.319 11.181-1.045 15.077 2.357 1.718 4.107 2.041 7.25 1.305 2.284-.534 2.816-.798 3.994-1.876 4.417-4.244 3.762-11.071-1.383-14.265-2.572-1.597-6.156-1.701-8.816-.241zm4.885 5.069c1.224.308 1.825.935 2.144 2.151.588 2.515-2.302 4.483-4.43 2.991-2.66-1.82-.8-5.955 2.286-5.142z"/><path id="Vector_8" d="M76.892 123.082c-1.778.904-2.69 1.781-3.8 3.75-1.829 3.22-1.44 6.969.963 9.931 4.799 5.893 14.126 3.396 15.609-4.14.607-3.074-.846-6.748-3.396-8.699-2.38-1.816-6.726-2.195-9.376-.842zm5.406 5.505c1.462.88 1.898 2.593 1.01 4.022-.886 1.429-2.615 1.798-4.052.878-1.42-.854-1.695-2.325-.765-3.869.97-1.519 2.411-1.925 3.807-1.031z"/><path id="Vector_9" d="M135.235 87.829c-17.765 5.517-29.015 23.366-26.62 42.106 1.917 14.907 12.248 27.288 26.635 31.949 13.478 4.351 28.689.897 38.802-8.833 10.883-10.469 14.806-26.219 10.051-40.428-2.838-8.55-8.059-15.356-15.52-20.241-10.111-6.674-21.611-8.241-33.348-4.553zm2.24 8.829c.48 2.052.94 3.27 1.426 3.855 1.539 1.803 4.745.739 5.028-1.63.042-.569-.196-2.328-.559-3.883l-.658-2.813 1.874-.194c2.51-.308 7.178.1 10.316.832 3.803.89 6.848 2.272 10.562 4.719 6.276 4.151 10.81 10.105 13.149 17.271l.756 2.335-3.476.953c-3.121.835-3.535 1.002-4.126 1.908-.489.743-.597 1.326-.396 2.187.567 2.275 1.995 2.709 6.032 1.764 3.11-.727 3.039-.885 2.528 3.946-1.296 12.658-8.925 22.714-21.044 27.748l-1.137.511-.961-3.51c-.889-3.352-.961-3.509-2.032-4.062-1.431-.747-2.821-.421-3.772.883-.716.97-.71 1.143-.02 4.542l.689 3.538-1.404.119c-11.141.861-21.96-3.762-28.82-12.348-1.536-1.944-3.958-5.88-4.182-6.839-.054-.232.966-.645 2.994-1.224 2.756-.75 3.163-.95 3.762-1.823.928-1.403.51-3.19-.945-4.037-.931-.549-1.377-.515-4.543.121l-3.539.688-.411-2.8c-.49-2.992-.372-7.556.263-10.811 1.454-7.809 6.577-15.743 13.262-20.588 2.267-1.647 5.99-3.635 7.637-4.055l1.051-.281.696 2.978z"/><path id="Vector_10" d="M159.637 107.248c-.437.521-3.263 4.254-6.3 8.28s-5.643 7.357-5.808 7.396c-.165.039-1.371-.936-2.671-2.167-2.82-2.656-4.315-3.528-5.672-3.21-1.39.325-2.312 1.902-1.964 3.391.217.926 1.206 2.021 4.864 5.423 5.04 4.685 5.792 5.067 7.52 3.651 1.669-1.368 15.008-19.391 15.223-20.558.32-2.065-1.657-3.801-3.808-3.298-.33.078-.948.571-1.384 1.092z"/></g></g><defs><clipPath id="clip0_272_1502"><path fill="#fff" transform="rotate(-13.168 154.38 17.818)" d="M0 0h173.993v173.993H0z"/></clipPath></defs></svg>