<svg width="156" height="157" viewBox="0 0 156 157" fill="none" xmlns="http://www.w3.org/2000/svg"><g id="free-icon-accounting-3176253 1" opacity=".33" clip-path="url(#clip0_272_1526)"><g id="Group" fill="#fff"><path id="Vector" d="M6.153 28.697C3.637 30.177 2.106 32.688 1.72 36c-.18 1.638.945 8.397 11.885 70.46l12.1 68.65 1.065 1.485c1.12 1.609 2.608 2.651 4.95 3.409l1.456.479 44.074-7.668 44.037-7.696.4 2.271c.223 1.265.681 2.724 1.043 3.262.792 1.265 3.036 2.609 5.316 3.211 12.547 3.241 50.895-3.519 61.577-10.854 1.937-1.345 3.587-3.376 3.898-4.835.374-1.672-10.548-63.638-11.472-65.081-.791-1.265-3.035-2.61-5.316-3.21-6.417-1.68-20.28-.808-35.108 2.174l-7.531 1.494-6.856-38.899c-6.703-38.023-6.857-38.9-7.803-40.472-1.2-2.063-3.675-3.767-6.03-4.222-1.769-.357-2.774-.18-53.964 8.876-43.7 7.703-52.313 9.322-53.288 9.862zm106.975-13.672c2.369.92 2.015-.522 7.133 28.514l4.632 26.28-9.343 1.646c-8.955 1.578-9.371 1.685-9.943 2.422-.814 1.08-.505 2.832.629 3.569.79.496 1.217.454 10.171-1.124l9.344-1.647 1.767 10.025c2.013 11.42 2.158 10.156-1.283 11.13l-2.003.588-.584-3.31c-.326-1.848-.886-3.89-1.213-4.602-.822-1.628-3.302-3.365-5.113-3.581-1.09-.11-10.808 1.503-41.953 6.993l-40.521 7.143-1.48 1.097c-.828.614-1.723 1.608-2.053 2.202-1.281 2.6-1.374 1.881 3.772 31.08 4.53 25.694 4.825 27.181 5.632 28.343.994 1.464 3.085 2.701 4.864 2.923.954.099 11.288-1.622 37.372-6.22L119 152.143l.715 4.055.715 4.056-43.181 7.611c-39.257 6.92-43.285 7.597-44.377 7.287-2.427-.676-1.687 2.572-9.43-41.355l-7.023-39.84 40.489-7.137c40.294-7.103 40.489-7.137 41.088-7.912.374-.534.525-1.196.4-1.91-.126-.714-.495-1.285-1.029-1.659-.828-.523-1.023-.488-41.317 6.614L15.56 89.09l-4.584-26.387C6.761 38.223 6.451 36.27 6.831 35.2c.784-2.38-3.242-1.503 53.56-11.549 50.611-8.92 51.616-9.098 52.737-8.627zm-37.01 95.002l2.258 12.815-19.465 3.431-19.466 3.431-2.11-11.971c-2.042-11.582-2.078-11.977-1.578-12.935l.5-.958 18.817-3.317 18.785-3.311 2.259 12.815zm41.329-19.83c.687.482.837.957 1.438 4.364l.675 3.828-1.489.664c-3.435 1.575-6.329 4.327-6.812 6.519-.199.771.003 2.676.621 6.18l.886 5.028-14.6 2.574-14.599 2.573-2.258-12.815-2.26-12.815 18.817-3.317c18.396-3.242 18.817-3.317 19.581-2.782zm39.253 4.455c5.779-.617 11.161-.83 14.786-.566 2.813.207 6.218 1.112 6.32 1.696.103.584-2.786 2.599-5.359 3.755-11.51 5.106-36.15 9.55-49.388 8.839-2.601-.144-6.797-1.177-6.894-1.728-.103-.584 2.819-2.605 5.359-3.755 7.573-3.342 22.764-6.923 35.176-8.241zm-36.391 18.424c6.74.852 14.928.245 28.392-2.128 14.892-2.625 23.69-5.28 29.889-9.015.366-.199.574.601 1.254 4.462.83 4.704.835 4.736.106 5.534-1.452 1.627-6.754 4-13.77 6.14-4.412 1.347-21.145 4.53-26.864 5.104-9.768.952-17.13.744-19.645-.619-.958-.5-.969-.565-1.793-5.237-.68-3.86-.758-4.683-.346-4.622.244.058 1.513.235 2.777.381zm-40.215 19.131c1.045 5.168 1.425 5.803 3.566 5.426 2.14-.378 2.28-1.105 1.495-6.319l-.665-4.532 14.567-2.568 14.567-2.567 2.259 12.815 2.259 12.815-14.567 2.567-14.567 2.568-.753-3.513c-.862-4.13-1.383-4.808-3.394-4.453-2.012.354-2.27 1.169-1.667 5.345l.493 3.559-18.72 3.299c-16.416 2.894-18.795 3.247-19.524 2.907l-.8-.361-2.173-12.328-2.167-12.296 19.433-3.426 19.433-3.425.925 4.487zm41.618-3.958c2.425.476 9.137.597 14.03.27 2.512-.175 8.218-1.014 15.647-2.323 7.429-1.31 13.078-2.473 15.498-3.167 4.71-1.365 10.976-3.774 13.093-5.051.845-.517 1.605-.952 1.67-.963.032-.006.448 2.162.922 4.855l.858 4.866-1.538 1.141c-2.039 1.53-6.262 3.379-11.419 5.057-6.242 1.97-28.174 5.836-34.714 6.119-5.42.186-10.021-.107-12.459-.848l-1.836-.546-.858-4.866c-.474-2.693-.825-4.872-.76-4.884.032-.006.895.143 1.866.34zm7.903 15.801c7.324.181 10.382-.124 24.462-2.606 11.322-1.996 14.29-2.619 17.578-3.701 5.125-1.672 8.157-2.876 10.722-4.265l2.048-1.096.841 4.769.846 4.801-1.22 1.051c-.698.592-2.362 1.588-3.727 2.196-2.659 1.238-3.34 1.927-3.43 3.314-.075 1.285 1.475 2.483 2.832 2.211 1.194-.244 4.565-1.808 5.721-2.648l.829-.614.777 4.981.778 4.981-1.468 1.162c-8.516 6.719-48.097 13.696-58.397 10.293l-1.777-.59-.972-4.946-.972-4.947.994.326c1.553.463 7.731.779 11.916.61 6.734-.318 18.488-1.955 25.66-3.587 3.664-.846 6.721-1.72 7.109-1.989 1.376-1.112.987-3.318-.747-4.05-.718-.274-1.756-.091-7.252 1.178-7.237 1.644-18.855 3.291-25.271 3.518-4.722.163-9.735-.191-11.658-.855l-1.494-.506-.961-4.882-.961-4.882 2.338.358c1.301.172 3.475.357 4.856.415z"/><path id="Vector_2" d="M23.125 39.019c-1.471.761-3.191 3.339-3.392 5.047-.214 2.011 4.418 28.29 5.307 30.107.822 1.628 3.303 3.365 5.114 3.581 2.049.24 81.794-13.816 83.638-14.743 1.627-.822 3.365-3.302 3.581-5.113.214-2.012-4.418-28.29-5.307-30.108-.823-1.627-3.303-3.364-5.114-3.58-1.057-.115-8.147 1.034-29.138 4.734-27.446 4.838-27.706 4.884-28.305 5.659-.813 1.08-.505 2.831.629 3.568.828.523 1.087.478 28.502-4.355 27.252-4.803 27.674-4.878 28.437-4.343.725.508.837.956 3.165 14.16 2.327 13.204 2.375 13.664 1.867 14.39-.534.763-.956.837-40.926 7.883-39.97 7.045-40.391 7.12-41.154 6.585-.726-.508-.838-.956-3.166-14.16-2.327-13.205-2.375-13.665-1.867-14.39.508-.725.956-.838 8.418-2.153 7.495-1.32 7.91-1.428 8.483-2.164.814-1.08.505-2.832-.629-3.569-.79-.496-1.185-.46-8.933.94-4.99.912-8.569 1.677-9.21 2.024z"/><path id="Vector_3" d="M91.32 36.866c-.553.465-1.35 1.442-1.788 2.188l-.756 1.404 1.024 6.377c1.172 7.219 1.399 7.748 4.034 9.223l1.404.756 4.315-.76 4.315-.76 1.062-1.191c1.918-2.212 1.966-2.89.77-9.67-1.195-6.78-1.471-7.4-4.03-8.823-1.366-.73-1.502-.739-5.347-.161-3.424.503-4.12.726-5.002 1.417zm9.352 8.453l.943 5.354-2.92.514-2.92.515-.983-5.012c-.519-2.752-.915-5.19-.858-5.435.04-.341.77-.57 2.922-.883l2.872-.406.944 5.353z"/><path id="Vector_4" d="M55.27 104.67c-.62.845-.628 1.181-.182 3.712l.486 2.757-2.758.486c-2.53.446-2.843.568-3.425 1.44-.861 1.189-.644 2.422.572 3.245.845.62 1.18.628 3.711.182l2.758-.486.486 2.757c.446 2.531.568 2.844 1.44 3.426.502.38 1.311.605 1.765.525.454-.08 1.138-.568 1.48-1.097.62-.845.627-1.181.181-3.711l-.486-2.758 2.758-.486c2.53-.446 2.844-.568 3.426-1.44.38-.502.605-1.311.525-1.765-.08-.455-.569-1.138-1.097-1.48-.845-.62-1.181-.628-3.712-.182l-2.758.486-.486-2.757c-.446-2.531-.568-2.844-1.44-3.426-1.188-.861-2.421-.644-3.244.572z"/><path id="Vector_5" d="M91.86 99.893c-.512.325-.989.844-1.062 1.191-.252 1.416.216 2.17 2.446 3.817l2.275 1.707-1.554 2.381c-1.533 2.311-1.709 3.211-.993 4.423.187.302.812.626 1.404.756 1.433.35 2.267-.232 4.016-2.648l1.395-1.952 2.011 1.352c2.437 1.678 3.419 1.939 4.647 1.121.511-.324.988-.843 1.061-1.191.258-1.383-.215-2.17-2.446-3.817l-2.274-1.706 1.554-2.382c1.533-2.31 1.714-3.179.993-4.423-.187-.302-.813-.626-1.405-.756-1.433-.35-2.267.232-3.983 2.642l-1.428 1.958-1.978-1.357c-2.47-1.672-3.452-1.934-4.68-1.116z"/><path id="Vector_6" d="M96.829 129.792c-.38.502-.605 1.311-.525 1.765.08.454.568 1.137 1.096 1.479.502.38 1.311.605 1.766.525.454-.08 1.137-.568 1.479-1.097.38-.501.605-1.311.525-1.765-.08-.454-.568-1.137-1.097-1.479-.502-.38-1.311-.605-1.765-.525-.454.08-1.138.568-1.48 1.097z"/><path id="Vector_7" d="M102.7 135.012c-4.602 6.532-5.14 7.463-4.975 8.404.229 1.298 1.488 2.179 2.818 1.945.811-.143 1.695-1.202 5.897-7.161 2.705-3.822 4.995-7.336 5.083-7.787.315-1.628-1.356-3.139-3.108-2.831-.292.052-2.882 3.385-5.715 7.43z"/><path id="Vector_8" d="M53.144 143.848c-.38.501-.605 1.31-.525 1.765.08.454.568 1.137 1.097 1.479l.922.674 9.603-1.693 9.603-1.693.636-.948c.38-.502.605-1.311.525-1.765-.08-.454-.569-1.138-1.097-1.479l-.922-.674-9.603 1.693-9.603 1.692-.636.949z"/><path id="Vector_9" d="M108.735 140.404c-.38.502-.605 1.311-.525 1.765.188 1.071 1.791 2.193 2.862 2.005 1.071-.189 2.193-1.792 2.004-2.862-.189-1.071-1.791-2.194-2.862-2.005-.454.08-1.137.569-1.479 1.097z"/></g></g><defs><clipPath id="clip0_272_1526"><path fill="#fff" transform="rotate(-9.997 167.386 14.64)" d="M0 0h168.669v168.669H0z"/></clipPath></defs></svg>