<svg width="76" height="142" viewBox="0 0 76 142" fill="none" xmlns="http://www.w3.org/2000/svg"><g opacity=".33" clip-path="url(#clip0_272_1060)" fill="#fff"><path d="M5.291 23.368C3.244 24.572 2 26.615 1.685 29.31c-.147 1.332.768 6.831 9.67 57.328l9.845 55.855.866 1.208c.911 1.309 2.122 2.157 4.027 2.774l1.185.39 35.86-6.239 35.83-6.262.325 1.848c.182 1.03.554 2.216.849 2.654.644 1.029 2.47 2.123 4.325 2.612 10.209 2.637 41.409-2.862 50.101-8.831 1.576-1.094 2.918-2.746 3.171-3.934.305-1.36-8.582-51.777-9.333-52.951-.645-1.03-2.47-2.123-4.326-2.613-5.221-1.365-16.5-.657-28.565 1.77l-6.127 1.216-5.579-31.65c-5.453-30.936-5.578-31.65-6.348-32.929-.977-1.678-2.99-3.065-4.906-3.435-1.44-.29-2.258-.147-43.907 7.222-35.556 6.268-42.563 7.584-43.357 8.024zM92.33 12.244c1.928.749 1.64-.425 5.804 23.2l3.769 21.381-7.602 1.34c-7.286 1.284-7.624 1.371-8.09 1.97-.662.88-.41 2.305.512 2.904.642.404.99.37 8.276-.915l7.602-1.34 1.437 8.157c1.638 9.292 1.757 8.264-1.043 9.057l-1.631.477-.474-2.692c-.265-1.505-.722-3.166-.987-3.745-.669-1.325-2.687-2.738-4.16-2.914-.887-.088-8.794 1.224-34.134 5.69l-32.97 5.812-1.203.892c-.674.5-1.402 1.309-1.671 1.792-1.042 2.116-1.118 1.53 3.07 25.287 3.684 20.906 3.925 22.116 4.581 23.062.81 1.191 2.51 2.197 3.958 2.378.776.081 9.184-1.32 30.407-5.061l29.326-5.169.582 3.299.582 3.3-35.134 6.193c-31.94 5.63-35.218 6.18-36.106 5.929-1.975-.55-1.373 2.093-7.673-33.648l-5.713-32.415 32.942-5.807c32.785-5.779 32.943-5.807 33.43-6.437.305-.435.428-.974.326-1.554a2.042 2.042 0 00-.837-1.35c-.674-.425-.832-.397-33.617 5.381l-32.942 5.807-3.73-21.47C5.786 31.12 5.534 29.53 5.843 28.66c.638-1.936-2.638-1.222 43.578-9.396 41.178-7.258 41.997-7.403 42.908-7.019zM62.217 89.54l1.838 10.427-15.838 2.791-15.838 2.792-1.717-9.74c-1.661-9.424-1.69-9.745-1.284-10.525l.407-.779 15.31-2.698 15.284-2.695 1.838 10.427zm33.626-16.134c.559.392.682.778 1.17 3.55l.55 3.115-1.212.54c-2.795 1.282-5.15 3.52-5.543 5.304-.161.628.003 2.177.506 5.028l.72 4.092-11.878 2.093-11.878 2.094-1.838-10.426-1.838-10.427 15.31-2.699c14.967-2.638 15.31-2.698 15.931-2.264zm31.938 3.624c4.702-.502 9.08-.675 12.03-.46 2.289.168 5.059.905 5.143 1.38.083.475-2.268 2.114-4.361 3.055-9.365 4.154-29.412 7.77-40.183 7.192-2.117-.117-5.53-.958-5.61-1.407-.084-.475 2.294-2.119 4.36-3.054 6.162-2.72 18.522-5.633 28.621-6.706zm-29.61 14.99c5.485.694 12.147.2 23.102-1.73 12.116-2.137 19.274-4.297 24.318-7.336.298-.161.467.49 1.021 3.63.674 3.828.679 3.855.086 4.504-1.182 1.324-5.496 3.254-11.204 4.995-3.59 1.096-17.204 3.686-21.858 4.153-7.947.774-13.937.606-15.983-.503-.78-.407-.789-.46-1.459-4.261-.553-3.141-.617-3.81-.282-3.76.2.046 1.232.19 2.26.308zm-32.719 15.566c.85 4.205 1.159 4.722 2.901 4.415 1.742-.307 1.856-.899 1.217-5.141l-.541-3.688 11.852-2.089 11.852-2.089 1.838 10.427 1.838 10.426-11.853 2.089-11.852 2.09-.612-2.859c-.701-3.36-1.125-3.911-2.762-3.623-1.636.289-1.846.952-1.356 4.349l.401 2.896-15.23 2.684c-13.357 2.355-15.293 2.642-15.886 2.365l-.65-.293-1.769-10.031-1.763-10.004 15.811-2.787 15.812-2.788.752 3.651zm33.862-3.22c1.973.387 7.434.486 11.415.22 2.043-.143 6.686-.825 12.731-1.891 6.044-1.065 10.641-2.011 12.609-2.576 3.833-1.111 8.931-3.071 10.653-4.11.688-.42 1.306-.774 1.358-.783.027-.005.365 1.759.751 3.95l.698 3.959-1.252.929c-1.658 1.245-5.094 2.748-9.29 4.114-5.079 1.603-22.923 4.748-28.244 4.979-4.41.151-8.153-.087-10.138-.69l-1.493-.445-.698-3.959c-.386-2.191-.672-3.964-.619-3.974.026-.004.728.117 1.519.277zm6.43 12.856c5.959.147 8.446-.101 19.902-2.12 9.213-1.624 11.627-2.131 14.303-3.011 4.169-1.361 6.636-2.34 8.723-3.47l1.667-.893.684 3.881.688 3.906-.992.856c-.568.481-1.923 1.291-3.033 1.786-2.163 1.007-2.717 1.568-2.791 2.697-.06 1.045 1.2 2.02 2.304 1.798.972-.198 3.715-1.471 4.656-2.154l.674-.5.632 4.053.633 4.052-1.194.946c-6.929 5.467-39.133 11.143-47.514 8.375l-1.445-.48-.791-4.025-.791-4.025.808.266c1.264.376 6.29.633 9.695.496 5.48-.259 15.043-1.59 20.878-2.918 2.981-.689 5.469-1.4 5.784-1.619 1.12-.905.804-2.7-.608-3.295-.584-.223-1.428-.074-5.9.959-5.888 1.337-15.341 2.677-20.561 2.862-3.842.133-7.921-.155-9.486-.696l-1.215-.412-.782-3.971-.782-3.972 1.902.29c1.059.14 2.828.291 3.952.338z"/><path d="M19.101 31.766c-1.197.619-2.596 2.716-2.76 4.106-.174 1.636 3.595 23.018 4.318 24.496.669 1.324 2.687 2.738 4.16 2.913 1.668.197 66.55-11.24 68.05-11.995 1.325-.669 2.739-2.687 2.915-4.16.174-1.637-3.595-23.018-4.318-24.496-.67-1.325-2.688-2.738-4.161-2.914-.86-.093-6.629.842-23.707 3.852-22.331 3.937-22.543 3.974-23.03 4.604-.662.879-.41 2.304.511 2.904.674.425.885.388 23.19-3.544 22.173-3.908 22.517-3.968 23.138-3.534.59.414.681.778 2.575 11.522 1.894 10.743 1.932 11.117 1.52 11.707-.436.621-.779.682-33.3 6.414C25.683 59.374 25.34 59.434 24.719 59c-.59-.413-.681-.778-2.575-11.521-1.894-10.744-1.933-11.118-1.52-11.708.414-.59.778-.681 6.85-1.751 6.097-1.075 6.436-1.162 6.902-1.761.661-.879.41-2.304-.512-2.904-.643-.404-.964-.374-7.268.764-4.06.743-6.972 1.365-7.494 1.648z"/><path d="M74.586 30.014c-.45.379-1.1 1.174-1.456 1.78l-.615 1.143.833 5.188c.954 5.874 1.139 6.304 3.283 7.505l1.142.615 3.511-.619 3.51-.619.864-.968c1.561-1.8 1.6-2.35.627-7.868-.972-5.517-1.197-6.021-3.279-7.178-1.112-.594-1.222-.601-4.35-.132-2.786.41-3.353.591-4.07 1.153zm7.608 6.878l.768 4.356-2.376.419-2.376.419-.8-4.078c-.422-2.24-.745-4.224-.698-4.422.033-.278.626-.464 2.377-.719l2.337-.33.768 4.355zm-36.94 48.289c-.505.688-.51.962-.148 3.02l.396 2.244-2.244.396c-2.059.363-2.314.462-2.787 1.171-.7.968-.524 1.97.465 2.64.688.505.961.511 3.02.148l2.244-.395.395 2.243c.363 2.06.462 2.314 1.172 2.788.408.309 1.066.492 1.436.427.37-.065.925-.463 1.203-.893.505-.687.511-.96.149-3.02l-.396-2.243 2.244-.396c2.059-.363 2.313-.462 2.787-1.172.31-.408.492-1.066.427-1.436-.065-.37-.462-.925-.892-1.203-.688-.505-.961-.511-3.02-.148l-2.244.395-.395-2.243c-.363-2.06-.463-2.314-1.172-2.788-.967-.7-1.97-.523-2.64.466zm29.771-3.886c-.416.264-.804.686-.863.968-.206 1.152.175 1.766 1.99 3.106l1.85 1.389-1.264 1.937c-1.247 1.88-1.39 2.613-.808 3.6.152.245.661.508 1.142.614 1.166.285 1.845-.189 3.268-2.154l1.135-1.588 1.636 1.1c1.983 1.364 2.782 1.577 3.78.911.417-.264.805-.686.864-.968.21-1.126-.175-1.766-1.99-3.106l-1.85-1.389 1.264-1.937c1.247-1.88 1.395-2.587.808-3.6-.152-.244-.661-.508-1.142-.614-1.166-.284-1.845.189-3.241 2.15l-1.162 1.593-1.61-1.105c-2.009-1.36-2.808-1.573-3.807-.907zm-31.5 35.763c-.31.408-.493 1.066-.428 1.436.066.369.463.925.893 1.203l.75.549 7.813-1.378 7.813-1.377.518-.771c.309-.409.492-1.067.427-1.437-.065-.369-.463-.925-.893-1.203l-.75-.548-7.813 1.377-7.813 1.377-.517.772z"/></g><defs><clipPath id="clip0_272_1060"><path fill="#fff" transform="rotate(-9.997 136.443 10.29)" d="M0 0h137.234v137.234H0z"/></clipPath></defs></svg>