<svg width="101" height="148" viewBox="0 0 101 148" fill="none" xmlns="http://www.w3.org/2000/svg"><g opacity=".33" clip-path="url(#clip0_272_1040)" fill="#fff"><path d="M19.114 30.202c-2 1.27-3.597 4.855-3.118 6.902.092.394-.362.583-4.116 1.572-3.545.94-4.413 1.254-5.305 1.933-1.264.988-2.288 2.528-2.711 4.15l-.326 1.21 11.526 49.619c6.353 27.273 11.665 49.862 11.824 50.185.152.297.558.728.914.949.583.362 1.015.316 4.584-.519l3.936-.921.823 3.516c.448 1.916 1.04 3.854 1.308 4.289.964 1.519-.655 1.814 33.015-6.063l30.6-7.159 2.303.734c4.254 1.386 8.729 2.055 13.607 1.965 2.342-.049 3.678-.251 7.93-1.246 5.596-1.281 7.266-1.949 11.666-4.556 18.143-10.832 24.764-33.999 15.121-52.974-5.028-9.895-13.939-17.222-24.971-20.481-1.457-.434-2.753-.767-2.858-.743-.105.025-2.465-9.47-5.224-21.143-5.586-23.522-5.119-21.998-7.538-23.702-2.051-1.43-3.566-1.518-8.399-.526l-4.145.86-.323-.673c-1.564-3.37-4.383-5.008-7.704-4.536-3.585.534-6.27 3.847-6.016 7.414l.068 1.12-4.671 1.092c-4.698 1.099-4.698 1.099-4.84.495-.448-1.915-2.737-4.01-5.068-4.627-1.712-.457-4.756.255-6.088 1.425-1.816 1.587-2.938 4.48-2.49 6.395.141.604.141.604-4.556 1.703L53.2 28.953l-.436-1.032c-1.355-3.31-5.231-5.087-8.68-3.976-3.16 1.044-4.98 3.795-4.887 7.51l.015.771-4.54 1.062-4.567 1.069-.595-1.245c-1.954-3.972-6.666-5.305-10.396-2.91zm5.196 3.988c.771.457.828.582 1.73 4.44l.922 3.936-2.231.522-2.23.522-.922-3.937c-.902-3.858-.907-3.995-.418-4.746a2.246 2.246 0 013.15-.737zm23.14-5.441l.883.458.915 3.91.908 3.884-2.264.613-2.291.619-.915-3.91c-.884-3.78-.895-3.943-.425-4.773.631-1.088 1.963-1.428 3.19-.801zm23.212-5.375c.75.488.832.718 1.783 4.426l.994 3.892-2.389.559-2.388.559-.836-3.929c-.793-3.745-.822-3.987-.366-4.758.356-.61.76-.898 1.442-1.057.682-.16 1.17-.08 1.76.308zm23.199-5.428c.79.535.853.686 1.737 4.465l.915 3.91-2.302.456-2.328.462-.909-3.884-.914-3.91.587-.802c.82-1.106 2.165-1.393 3.214-.697zm-76.054 26.9c1.02 4.356 1.416 4.513 8.03 2.966 6.613-1.548 6.898-1.864 5.88-6.22l-.584-2.493 4.566-1.069 4.567-1.068.75 2.731c.686 2.58.781 2.751 1.623 3.274l.88.569 4.402-.947c5.247-1.117 6.476-1.542 7.119-2.579.442-.712.433-.987-.168-3.559l-.645-2.755 4.684-1.04 4.663-1.009.73 2.764c.66 2.585.768 2.81 1.533 3.24.803.476.882.457 6.314-.814l5.485-1.283.517-.868c.502-.81.525-1.064.029-3.66l-.52-2.813 4.54-1.062 4.567-1.069.644 2.756c.602 2.572.716 2.822 1.428 3.264 1.037.644 2.327.48 7.525-.847l4.364-1.104.537-.9c.549-.849.532-1.038-.003-3.681l-.54-2.78 3.955-.842 3.955-.843.801.588c.802.587.808.613 2.245 6.755l1.437 6.14L62.205 46.5 11.293 58.411l-1.467-6.273-1.468-6.272.654-.872c.634-.84.733-.891 4.433-1.757l3.779-.884.583 2.493zm99.049 5.725l2.634 11.258-2.006-.057c-14.848-.401-29.167 7.959-36.31 21.2-4.4 8.171-5.867 17.399-4.155 26.493 1.332 6.996 3.947 12.612 8.987 19.128.192.231-5.405 1.624-27.476 6.788l-27.713 6.483-9.21-39.365-9.209-39.364L63.31 51.223l50.912-11.91 2.634 11.258zm-3.022 16.069c14.935-1.114 28.919 7.074 35.342 20.684 1.387 2.97 3.112 10.344 3.193 13.647.28 14.328-7.232 26.825-19.867 33.158-17.648 8.806-39.349 1.234-48.033-16.719-1.191-2.489-2.993-9.126-3.23-12.032-1.036-11.882 3.766-23.302 12.973-30.798 2.462-2.016 6.052-4.184 8.822-5.358 2.75-1.142 7.783-2.347 10.8-2.582zm-21.889 67.345c.938.694 2.03 1.573 2.469 1.913l.775.594-26.506 6.201-26.532 6.208-.552-2.362-.553-2.362 24.616-5.759 24.59-5.753 1.693 1.32z"/><path d="M28.66 69.35c-4.885 3.136-4.476 10.209.752 12.557 4.675 2.117 9.824-1.191 9.988-6.406.091-2.568-1.826-5.44-4.314-6.492-2.118-.888-4.69-.757-6.425.34zm4.86 4.205c1.742 1.06 1.31 3.707-.685 4.174-1.286.3-2.451-.423-2.752-1.709-.467-1.994 1.714-3.556 3.437-2.465zm18.3-9.568c-3.103 2-4.265 5.786-2.791 9.012 1.108 2.37 3.638 4.076 6.212 4.193 3.156.12 6.039-1.994 7.061-5.195.352-1.217.353-1.688-.07-3.498-.584-2.493-1.43-3.624-3.474-4.668-2.27-1.185-4.938-1.115-6.938.156zm4.75 4.092c1.212.686 1.55 2.018.78 3.222-1.18 1.937-4.212 1.041-4.19-1.234.039-1.725 1.892-2.795 3.41-1.987zm18.019-9.225c-1.48 1.01-2.975 3.491-3.051 5.06-.052 1.672.557 3.8 1.467 4.97 1.674 2.183 4.71 3.328 7.255 2.732 3.595-.841 6.048-4.792 5.227-8.42-.498-2.125-1.15-3.136-2.831-4.292-2.543-1.758-5.51-1.783-8.067-.05zm5.25 3.864c1.702 1.125 1.284 3.714-.684 4.174-.683.16-1.172.08-1.728-.288-1.703-1.124-1.284-3.713.684-4.173.682-.16 1.171-.08 1.728.288zM32.306 88.481c-4.77 3.746-2.937 11.344 3.014 12.526 1.74.341 4.332-.294 5.682-1.384 1.443-1.168 2.554-3.283 2.66-5.079.12-1.855-.04-2.537-.97-4.147-1.465-2.59-4.628-3.927-7.646-3.22-1.102.257-1.925.643-2.74 1.304zm5.658 3.715c1.093.768 1.315 2.072.488 3.152-.907 1.208-2.224 1.378-3.386.432-.717-.58-.942-2.132-.4-2.896.882-1.313 2.043-1.557 3.298-.688zm17.543-9.253c-1.919 1.5-2.872 3.578-2.778 5.992.184 3.86 3.536 6.95 7.358 6.721 4.45-.266 7.361-3.909 6.63-8.333-.227-1.33-.435-1.863-1.23-2.895-1.854-2.362-4.07-3.2-7.066-2.637-1.462.259-2.094.517-2.914 1.152zm5.532 3.771c.448.255.774.705.903 1.256.283 1.207.15 1.708-.61 2.357-1.915 1.638-4.675-.456-3.627-2.722.614-1.279 1.967-1.65 3.334-.891zm-23.394 19.618c-4.588 2.512-5.011 8.867-.828 11.957 1.868 1.362 3.257 1.619 5.75 1.035 1.81-.423 2.233-.633 3.167-1.488 3.503-3.366 2.984-8.78-1.096-11.313-2.04-1.267-4.883-1.349-6.993-.191zm3.875 4.02c.97.244 1.447.741 1.7 1.706.467 1.994-1.826 3.555-3.514 2.372-2.11-1.444-.635-4.723 1.814-4.078zm19.463-9.564c-1.41.718-2.133 1.413-3.013 2.975-1.451 2.554-1.143 5.527.763 7.876 3.806 4.674 11.204 2.694 12.38-3.283.481-2.438-.671-5.352-2.694-6.899-1.887-1.441-5.334-1.741-7.436-.669zm4.288 4.367c1.16.698 1.505 2.056.801 3.19-.703 1.133-2.074 1.426-3.214.696-1.127-.677-1.345-1.844-.607-3.069.77-1.204 1.913-1.527 3.02-.817zm41.983-32.325c-14.089 4.375-23.012 18.53-21.112 33.393 1.52 11.824 9.713 21.643 21.124 25.34 10.689 3.45 22.753.711 30.774-7.006 8.631-8.303 11.743-20.795 7.972-32.064-2.251-6.78-6.393-12.178-12.309-16.053-8.02-5.293-17.141-6.536-26.449-3.61zm1.777 7.002c.381 1.627.745 2.593 1.13 3.057 1.221 1.43 3.764.586 3.988-1.293.033-.45-.155-1.846-.443-3.08l-.522-2.23 1.486-.154c1.991-.245 5.693.08 8.182.66 3.016.706 5.431 1.802 8.376 3.742 4.978 3.292 8.574 8.014 10.429 13.698l.6 1.852-2.757.756c-2.475.662-2.804.794-3.272 1.513-.388.589-.474 1.052-.314 1.734.45 1.805 1.582 2.149 4.784 1.4 2.466-.577 2.409-.702 2.005 3.129-1.028 10.039-7.079 18.015-16.691 22.007l-.901.405-.762-2.783c-.705-2.659-.762-2.784-1.612-3.222-1.135-.592-2.237-.334-2.992.7-.567.77-.563.907-.015 3.602l.546 2.807-1.113.094c-8.836.683-17.417-2.984-22.857-9.793-1.22-1.542-3.14-4.663-3.318-5.425-.043-.183.766-.511 2.375-.97 2.186-.595 2.509-.753 2.984-1.446.736-1.113.404-2.53-.75-3.201-.738-.436-1.092-.409-3.603.095l-2.806.546-.326-2.221c-.39-2.372-.295-5.993.208-8.574 1.153-6.193 5.217-12.486 10.518-16.328 1.798-1.307 4.751-2.883 6.057-3.217l.833-.222.553 2.362z"/></g><defs><clipPath id="clip0_272_1040"><path fill="#fff" transform="rotate(-13.168 136.18 15.718)" d="M0 0h137.994v137.994H0z"/></clipPath></defs></svg>