<svg width="186" height="146" viewBox="0 0 186 146" fill="none" xmlns="http://www.w3.org/2000/svg"><g id="free-icon-contract-6092315 1" opacity=".33" clip-path="url(#clip0_272_1174)"><g id="Group" fill="#fff"><path id="Vector" d="M18.095 1.576c-1.576.347-3.147 1.47-3.896 2.858-.706 1.258-.884 3.097-4.084 43.697-3.324 42.173-3.337 42.34-2.726 43.13.858 1.078 2.666 1.22 3.682.29.728-.684.744-.884 4.044-42.757 2.999-38.056 3.382-42.067 3.867-42.231.309-.077 24.383 1.72 53.502 4.014 40.735 3.21 53.044 4.282 53.322 4.607.246.289.282 1.538.137 3.379l-.232 2.945-47.662-3.756c-32.869-2.59-47.972-3.68-48.663-3.465-1.309.368-2.928 1.689-3.567 2.952-.473.872-1.394 11.711-5.742 66.871l-5.189 65.838 3.294 3.931 3.297 3.897-7.325-.645-7.356-.681 2.107-28.865c1.945-26.823 2.078-28.935 1.593-29.613-.73-1-2.64-1.117-3.62-.218-.728.684-.749.952-3.015 29.703-1.554 19.715-2.213 29.362-1.995 30.019.127.515.628 1.431 1.09 1.972 1.624 2.048 1.69 2.053 12.87 2.934l10.276.81 5.12 5.961 5.122 5.96 31.328 2.469c31.162 2.456 31.296 2.467 32.255 1.835 1.173-.783 1.413-2.549.488-3.632-.616-.722-1.052-.757-30.406-3.07l-29.789-2.348.668-8.468c.754-9.573.65-10.389-1.587-12.351l-1.161-1.068-8.996-.81-8.963-.807 5.098-63.824 5.131-63.822 55.395 4.366L141.2 27.95l-2.851 37.462-2.888 37.493-9.548 14.74c-5.255 8.14-9.848 15.558-10.228 16.538-.852 2.257-.991 4.031-.726 9.205l.214 4.125-1.007 1.672c-.543.901-1.024 1.873-1.042 2.107-.074.938 1.196 2.351 2.166 2.428 1.54.121 2.035-.177 3.042-1.849.93-1.543 1.105-1.63 5.692-3.424 3.577-1.369 5.193-2.218 6.493-3.328l1.734-1.48-1.392 16.797-1.424 16.795-11.126-.709c-12.096-.785-11.859-.8-12.481 1.105-.259.72-.12 1.102.651 2.004l.922 1.117 11.321.791c12.627.895 12.56.889 14.59-1.376l1.033-1.131 1.924-22.278 1.924-22.279 16.836-26.02 16.836-26.02.897.576c1.189.733 1.93 2.442 1.587 3.796-.145.56-3.813 6.502-8.149 13.233-4.334 6.697-7.921 12.477-7.95 12.845-.029.368.217 1.095.579 1.629.783 1.173 2.284 1.358 3.406.369.9-.737 15.734-23.581 16.593-25.5 1.592-3.546.169-8.138-3.33-10.737-.731-.563-.728-.596-.092-1.826.915-1.78 1.163-5.364.474-7.305-.74-2.146-2.274-4.052-4.167-5.245-1.381-.85-2.07-1.073-4.313-1.25-2.376-.187-2.886-.126-4.6.682-2.377 1.092-3.853 2.727-6.784 7.447-2.16 3.467-2.245 3.696-1.884 4.668.477 1.216 1.838 1.896 3.08 1.522.654-.184 1.583-1.29 3.644-4.36 2.177-3.264 2.995-4.243 3.936-4.64 3.314-1.457 6.662.928 6.375 4.577-.108 1.372-2.226 4.741-21.33 34.321-11.849 18.297-21.752 33.279-22.405 33.867-.616.558-2.516 1.587-4.222 2.294l-3.095 1.238-.17-2.539c-.256-3.59-.005-5.49.821-7.008.429-.741 7.919-12.443 16.7-25.998 11.159-17.24 15.979-24.976 16.037-25.712.055-.703-.171-1.26-.736-1.776-1.979-1.806-2.771-1.161-7.368 5.886l-3.988 6.152 2.458-33.317 2.457-33.317-.644-1.23c-.349-.7-1.217-1.645-1.889-2.102-1.185-.767-1.715-.876-7.138-1.303l-5.857-.462.198-3.79c.17-4.297-.26-5.679-2.361-7.225l-1.178-.867-54.218-4.34c-29.82-2.385-54.63-4.24-55.145-4.111zM36.352 153.66c.049.24-.15 3.188-.447 6.533l-.58 6.083-6.013-7.041-6.013-7.041 6.46.509c4.92.388 6.486.612 6.593.957z"/><path id="Vector_2" d="M47.774 27.12l-1.047.894-.607 7.698c-.57 7.23-.576 7.734-.003 8.588.362.534 1.19 1.138 1.844 1.391 1.67.603 70.018 5.99 71.762 5.656.685-.148 1.597-.615 2.038-1.085.7-.754.773-1.253 1.343-8.483l.606-7.698-.894-1.047-.894-1.047-36.55-2.881-36.55-2.88-1.048.893zm70.29 14.498l-.382 4.853-33.471-2.638-33.471-2.638.382-4.853.383-4.853 33.471 2.638 33.471 2.638-.383 4.853z"/><path id="Vector_3" d="M37.657 55.488c-.503.398-.919.972-.942 1.273-.077.97.78 2.486 1.532 2.781 1.444.485 22.909 2.042 23.844 1.711 1.214-.443 1.84-1.977 1.3-3.232-.23-.523-.658-1.062-.915-1.217-.294-.124-5.809-.66-12.235-1.166l-11.715-.923-.869.773z"/><path id="Vector_4" d="M36.858 67.347c-.604.39-.847.91-.918 1.814-.071.904.087 1.455.622 1.935.689.66 2.193.813 42.157 3.962 41.404 3.264 41.404 3.264 42.363 2.632.675-.452.949-.936 1.012-1.739.064-.803-.131-1.324-.727-1.876-.849-.774-.849-.774-42.252-4.037-39.965-3.15-41.474-3.235-42.257-2.69z"/><path id="Vector_5" d="M36.847 78.157c-.897.267-1.934 1.465-1.995 2.234-.024.302.227.961.59 1.495l.6.923 41.839 3.298c41.37 3.26 41.805 3.294 42.527 2.678.903-.771 1.058-2.308.3-3.378l-.572-.854-41.298-3.322c-22.825-1.832-41.61-3.212-41.991-3.074z"/><path id="Vector_6" d="M34.94 89.963c-.503.399-.919.972-.94 1.24-.074.937.568 2.2 1.376 2.634.547.313 12.455 1.352 41.876 3.671 41.069 3.237 41.103 3.239 42.062 2.608 1.209-.814 1.413-2.55.421-3.638-.683-.727-.884-.743-42.288-4.006L35.81 89.19l-.869.773z"/><path id="Vector_7" d="M34.74 100.624c-.763.276-1.597 1.457-1.668 2.361-.021.267.3.899.734 1.371l.737.9 41.705 3.287c41.237 3.25 41.672 3.284 42.394 2.668 1.083-.925 1.123-2.707.087-3.665-.849-.774-.849-.774-42.054-3.988-27.647-2.179-41.448-3.132-41.935-2.934z"/><path id="Vector_8" d="M33.036 112.412c-1.066 1.128-1.029 1.94.017 3.201l.928 1.049 41.542 3.207 41.579 3.176.7-.753c.916-.938 1.003-2.48.233-3.383-.617-.722-1.052-.757-42.422-4.017l-41.84-3.298-.737.818z"/><path id="Vector_9" d="M73.177 136.827c-2.27.596-5.226 3.495-7.59 7.417-1.553 2.606-3.686 7.456-3.778 8.627-.138 1.741 2.177 3.136 3.632 2.206.35-.174 1.21-1.689 1.976-3.279 2.963-6.401 5.885-10.145 7.759-9.998 1.239.098 1.464.655 1.786 4.688.342 4.203 1.052 5.876 2.982 7.038 1.764 1.116 3.002 1.213 4.915.455 1.703-.674 2.934-2.194 4.295-5.353l.869-2.054.654 2.376c.898 3.135 3.265 6.016 5.994 7.275 4.384 2.063 13.553 2.82 15.024 1.252.882-.941.93-1.981.116-3.191l-.662-.995-3.399-.032c-5.516-.098-9.564-1.293-11.124-3.302-.308-.361-.954-1.994-1.47-3.551-.516-1.59-1.26-3.265-1.627-3.732-.95-1.186-2.952-1.849-4.596-1.507-1.713.37-2.83 1.73-4.194 4.924-1.073 2.508-1.91 3.722-2.28 3.289-.092-.109-.328-1.811-.546-3.748-.454-4.919-1.521-7.192-3.826-8.284-.942-.444-3.98-.785-4.91-.521z"/></g></g><defs><clipPath id="clip0_272_1174"><path fill="#fff" transform="rotate(4.506 -4.56 176.288)" d="M0 0h171.903v171.903H0z"/></clipPath></defs></svg>