<svg width="1338" height="489" viewBox="0 0 1338 489" fill="none" xmlns="http://www.w3.org/2000/svg"><path stroke="#fff" d="M107.01 431.401h1230m-1230 0h1230M107.5 3v427m0-427v427"/><path d="M107.01 343.5H1337m-1229.99 0H1337m-1229.99-81H1337m-1229.99 0H1337m-1229.99-83H1337m-1229.99 0H1337m-1229.99-83H1337m-1229.99 0H1337m-1229.99-82H1337m-1229.99 0H1337" opacity=".2" stroke="#fff"/><path d="M263.5 430V16m524 414V16m-263 414V16m524 414V16m-655 414V16m524 414V16m-263 414V16m524 414V16m135 414V16" opacity=".2" stroke="#E0E0E0"/><path d="M117.8 486.26V488h-10.06v-1.36l5.7-5.5c.693-.667 1.16-1.24 1.4-1.72.24-.493.36-.987.36-1.48 0-.733-.26-1.3-.78-1.7-.507-.413-1.24-.62-2.2-.62-1.547 0-2.74.507-3.58 1.52l-1.36-1.18c.547-.667 1.26-1.187 2.14-1.56.893-.373 1.887-.56 2.98-.56 1.467 0 2.633.353 3.5 1.06.867.693 1.3 1.64 1.3 2.84 0 .747-.16 1.453-.48 2.12-.32.667-.927 1.427-1.82 2.28l-4.28 4.12h7.18zm7.406 1.9c-1.107 0-2.094-.28-2.96-.84-.854-.573-1.527-1.4-2.02-2.48-.494-1.08-.74-2.36-.74-3.84s.246-2.76.74-3.84c.493-1.08 1.166-1.9 2.02-2.46.866-.573 1.853-.86 2.96-.86 1.093 0 2.066.287 2.92.86.866.56 1.546 1.38 2.04 2.46.493 1.08.74 2.36.74 3.84s-.247 2.76-.74 3.84c-.494 1.08-1.174 1.907-2.04 2.48-.854.56-1.827.84-2.92.84zm0-1.78c1.12 0 2.013-.46 2.68-1.38.68-.92 1.02-2.253 1.02-4 0-1.747-.34-3.08-1.02-4-.667-.92-1.56-1.38-2.68-1.38-1.134 0-2.04.46-2.72 1.38-.667.92-1 2.253-1 4 0 1.747.333 3.08 1 4 .68.92 1.586 1.38 2.72 1.38zM137.207 474v14h-1.98v-12.26h-3.16V474h5.14zm15.342 10.56h-2.66V488h-1.94v-3.44h-7.78v-1.4l7.16-9.16h2.16l-6.86 8.84h5.38v-3.04h1.88v3.04h2.66v1.72zm100.804 1.7V488h-10.06v-1.36l5.7-5.5c.693-.667 1.16-1.24 1.4-1.72.24-.493.36-.987.36-1.48 0-.733-.26-1.3-.78-1.7-.507-.413-1.24-.62-2.2-.62-1.547 0-2.74.507-3.58 1.52l-1.36-1.18c.547-.667 1.26-1.187 2.14-1.56.893-.373 1.887-.56 2.98-.56 1.467 0 2.633.353 3.5 1.06.867.693 1.3 1.64 1.3 2.84 0 .747-.16 1.453-.48 2.12-.32.667-.927 1.427-1.82 2.28l-4.28 4.12h7.18zm7.406 1.9c-1.107 0-2.093-.28-2.96-.84-.853-.573-1.527-1.4-2.02-2.48-.493-1.08-.74-2.36-.74-3.84s.247-2.76.74-3.84 1.167-1.9 2.02-2.46c.867-.573 1.853-.86 2.96-.86 1.093 0 2.067.287 2.92.86.867.56 1.547 1.38 2.04 2.46.493 1.08.74 2.36.74 3.84s-.247 2.76-.74 3.84-1.173 1.907-2.04 2.48c-.853.56-1.827.84-2.92.84zm0-1.78c1.12 0 2.013-.46 2.68-1.38.68-.92 1.02-2.253 1.02-4 0-1.747-.34-3.08-1.02-4-.667-.92-1.56-1.38-2.68-1.38-1.133 0-2.04.46-2.72 1.38-.667.92-1 2.253-1 4 0 1.747.333 3.08 1 4 .68.92 1.587 1.38 2.72 1.38zM272.76 474v14h-1.98v-12.26h-3.16V474h5.14zm7.163 5.58c2 0 3.466.38 4.4 1.14.946.747 1.42 1.773 1.42 3.08 0 .827-.2 1.573-.6 2.24-.387.653-.98 1.173-1.78 1.56-.787.373-1.76.56-2.92.56-.987 0-1.94-.147-2.86-.44-.92-.307-1.68-.727-2.28-1.26l.92-1.58c.48.453 1.093.82 1.84 1.1.746.267 1.533.4 2.36.4 1.053 0 1.866-.22 2.44-.66.586-.453.88-1.067.88-1.84 0-.84-.32-1.473-.96-1.9-.64-.44-1.734-.66-3.28-.66h-3.18l.74-7.32h7.9v1.74h-6.22l-.38 3.84h1.56zm102 6.68V488h-10.06v-1.36l5.7-5.5c.694-.667 1.16-1.24 1.4-1.72.24-.493.36-.987.36-1.48 0-.733-.26-1.3-.78-1.7-.506-.413-1.24-.62-2.2-.62-1.546 0-2.74.507-3.58 1.52l-1.36-1.18c.547-.667 1.26-1.187 2.14-1.56.894-.373 1.887-.56 2.98-.56 1.467 0 2.634.353 3.5 1.06.867.693 1.3 1.64 1.3 2.84 0 .747-.16 1.453-.48 2.12-.32.667-.926 1.427-1.82 2.28l-4.28 4.12h7.18zm7.406 1.9c-1.106 0-2.093-.28-2.96-.84-.853-.573-1.526-1.4-2.02-2.48-.493-1.08-.74-2.36-.74-3.84s.247-2.76.74-3.84c.494-1.08 1.167-1.9 2.02-2.46.867-.573 1.854-.86 2.96-.86 1.094 0 2.067.287 2.92.86.867.56 1.547 1.38 2.04 2.46.494 1.08.74 2.36.74 3.84s-.246 2.76-.74 3.84c-.493 1.08-1.173 1.907-2.04 2.48-.853.56-1.826.84-2.92.84zm0-1.78c1.12 0 2.014-.46 2.68-1.38.68-.92 1.02-2.253 1.02-4 0-1.747-.34-3.08-1.02-4-.666-.92-1.56-1.38-2.68-1.38-1.133 0-2.04.46-2.72 1.38-.666.92-1 2.253-1 4 0 1.747.334 3.08 1 4 .68.92 1.587 1.38 2.72 1.38zM401.33 474v14h-1.98v-12.26h-3.16V474h5.14zm9.203 5.5c.92 0 1.74.173 2.46.52a4.025 4.025 0 011.72 1.5c.413.64.62 1.38.62 2.22 0 .88-.22 1.653-.66 2.32-.427.667-1.02 1.187-1.78 1.56-.747.36-1.587.54-2.52.54-1.88 0-3.334-.607-4.36-1.82-1.014-1.213-1.52-2.933-1.52-5.16 0-1.56.273-2.887.82-3.98.56-1.107 1.333-1.94 2.32-2.5 1-.573 2.16-.86 3.48-.86.68 0 1.32.073 1.92.22.6.133 1.12.333 1.56.6l-.76 1.56c-.667-.44-1.56-.66-2.68-.66-1.454 0-2.594.453-3.42 1.36-.827.893-1.24 2.2-1.24 3.92 0 .213.006.38.02.5.4-.6.946-1.053 1.64-1.36.706-.32 1.5-.48 2.38-.48zm-.24 7.04c.92 0 1.666-.247 2.24-.74.573-.493.86-1.153.86-1.98s-.294-1.48-.88-1.96c-.574-.493-1.347-.74-2.32-.74-.627 0-1.187.12-1.68.36-.48.24-.86.567-1.14.98-.267.413-.4.873-.4 1.38 0 .493.126.947.38 1.36.266.4.646.727 1.14.98.506.24 1.106.36 1.8.36zm100.826-.28V488h-10.06v-1.36l5.7-5.5c.693-.667 1.16-1.24 1.4-1.72.24-.493.36-.987.36-1.48 0-.733-.26-1.3-.78-1.7-.507-.413-1.24-.62-2.2-.62-1.547 0-2.74.507-3.58 1.52l-1.36-1.18c.546-.667 1.26-1.187 2.14-1.56.893-.373 1.886-.56 2.98-.56 1.466 0 2.633.353 3.5 1.06.866.693 1.3 1.64 1.3 2.84 0 .747-.16 1.453-.48 2.12-.32.667-.927 1.427-1.82 2.28l-4.28 4.12h7.18zm7.406 1.9c-1.107 0-2.094-.28-2.96-.84-.854-.573-1.527-1.4-2.02-2.48-.494-1.08-.74-2.36-.74-3.84s.246-2.76.74-3.84c.493-1.08 1.166-1.9 2.02-2.46.866-.573 1.853-.86 2.96-.86 1.093 0 2.066.287 2.92.86.866.56 1.546 1.38 2.04 2.46.493 1.08.74 2.36.74 3.84s-.247 2.76-.74 3.84c-.494 1.08-1.174 1.907-2.04 2.48-.854.56-1.827.84-2.92.84zm0-1.78c1.12 0 2.013-.46 2.68-1.38.68-.92 1.02-2.253 1.02-4 0-1.747-.34-3.08-1.02-4-.667-.92-1.56-1.38-2.68-1.38-1.134 0-2.04.46-2.72 1.38-.667.92-1 2.253-1 4 0 1.747.333 3.08 1 4 .68.92 1.586 1.38 2.72 1.38zM530.526 474v14h-1.98v-12.26h-3.16V474h5.14zm13.362 0v1.36l-5.66 12.64h-2.12l5.54-12.26h-6.4v2.5h-1.92V474h10.56zm96.772 12.26V488H630.6v-1.36l5.7-5.5c.693-.667 1.16-1.24 1.4-1.72.24-.493.36-.987.36-1.48 0-.733-.26-1.3-.78-1.7-.507-.413-1.24-.62-2.2-.62-1.547 0-2.74.507-3.58 1.52l-1.36-1.18c.546-.667 1.26-1.187 2.14-1.56.893-.373 1.886-.56 2.98-.56 1.466 0 2.633.353 3.5 1.06.866.693 1.3 1.64 1.3 2.84 0 .747-.16 1.453-.48 2.12-.32.667-.927 1.427-1.82 2.28l-4.28 4.12h7.18zm7.406 1.9c-1.107 0-2.094-.28-2.96-.84-.854-.573-1.527-1.4-2.02-2.48-.494-1.08-.74-2.36-.74-3.84s.246-2.76.74-3.84c.493-1.08 1.166-1.9 2.02-2.46.866-.573 1.853-.86 2.96-.86 1.093 0 2.066.287 2.92.86.866.56 1.546 1.38 2.04 2.46.493 1.08.74 2.36.74 3.84s-.247 2.76-.74 3.84c-.494 1.08-1.174 1.907-2.04 2.48-.854.56-1.827.84-2.92.84zm0-1.78c1.12 0 2.013-.46 2.68-1.38.68-.92 1.02-2.253 1.02-4 0-1.747-.34-3.08-1.02-4-.667-.92-1.56-1.38-2.68-1.38-1.134 0-2.04.46-2.72 1.38-.667.92-1 2.253-1 4 0 1.747.333 3.08 1 4 .68.92 1.586 1.38 2.72 1.38zM660.067 474v14h-1.98v-12.26h-3.16V474h5.14zm11.722 6.66c.8.307 1.413.747 1.84 1.32.427.573.64 1.26.64 2.06 0 .84-.227 1.573-.68 2.2-.453.613-1.1 1.087-1.94 1.42-.84.333-1.827.5-2.96.5-1.12 0-2.1-.167-2.94-.5-.827-.333-1.467-.807-1.92-1.42-.453-.627-.68-1.36-.68-2.2 0-.8.207-1.487.62-2.06.427-.573 1.04-1.013 1.84-1.32-.64-.307-1.127-.713-1.46-1.22-.333-.507-.5-1.107-.5-1.8 0-.773.207-1.447.62-2.02.427-.573 1.02-1.013 1.78-1.32.76-.307 1.64-.46 2.64-.46 1.013 0 1.9.153 2.66.46.773.307 1.367.747 1.78 1.32.427.573.64 1.247.64 2.02 0 .68-.173 1.28-.52 1.8-.333.507-.82.913-1.46 1.22zm-3.1-5.2c-.947 0-1.693.207-2.24.62-.547.4-.82.947-.82 1.64s.267 1.24.8 1.64c.547.4 1.3.6 2.26.6.973 0 1.733-.2 2.28-.6.56-.4.84-.947.84-1.64s-.287-1.24-.86-1.64c-.56-.413-1.313-.62-2.26-.62zm0 11.08c1.107 0 1.98-.227 2.62-.68.64-.467.96-1.093.96-1.88 0-.773-.32-1.38-.96-1.82-.64-.453-1.513-.68-2.62-.68-1.107 0-1.973.227-2.6.68-.627.44-.94 1.047-.94 1.82 0 .787.313 1.413.94 1.88.627.453 1.493.68 2.6.68zm103.234-.28V488h-10.06v-1.36l5.7-5.5c.694-.667 1.16-1.24 1.4-1.72.24-.493.36-.987.36-1.48 0-.733-.26-1.3-.78-1.7-.506-.413-1.24-.62-2.2-.62-1.546 0-2.74.507-3.58 1.52l-1.36-1.18c.547-.667 1.26-1.187 2.14-1.56.894-.373 1.887-.56 2.98-.56 1.467 0 2.634.353 3.5 1.06.867.693 1.3 1.64 1.3 2.84 0 .747-.16 1.453-.48 2.12-.32.667-.926 1.427-1.82 2.28l-4.28 4.12h7.18zm7.406 1.9c-1.106 0-2.093-.28-2.96-.84-.853-.573-1.526-1.4-2.02-2.48-.493-1.08-.74-2.36-.74-3.84s.247-2.76.74-3.84c.494-1.08 1.167-1.9 2.02-2.46.867-.573 1.854-.86 2.96-.86 1.094 0 2.067.287 2.92.86.867.56 1.547 1.38 2.04 2.46.494 1.08.74 2.36.74 3.84s-.246 2.76-.74 3.84c-.493 1.08-1.173 1.907-2.04 2.48-.853.56-1.826.84-2.92.84zm0-1.78c1.12 0 2.014-.46 2.68-1.38.68-.92 1.02-2.253 1.02-4 0-1.747-.34-3.08-1.02-4-.666-.92-1.56-1.38-2.68-1.38-1.133 0-2.04.46-2.72 1.38-.666.92-1 2.253-1 4 0 1.747.334 3.08 1 4 .68.92 1.587 1.38 2.72 1.38zM791.33 474v14h-1.98v-12.26h-3.16V474h5.14zm7.703-.16c1.88 0 3.326.607 4.34 1.82 1.026 1.213 1.54 2.933 1.54 5.16 0 1.56-.28 2.893-.84 4-.547 1.093-1.32 1.927-2.32 2.5-.987.56-2.14.84-3.46.84-.68 0-1.32-.067-1.92-.2a5.526 5.526 0 01-1.56-.62l.76-1.56c.68.44 1.58.66 2.7.66 1.453 0 2.586-.447 3.4-1.34.826-.907 1.24-2.22 1.24-3.94v-.5c-.4.6-.954 1.06-1.66 1.38-.707.307-1.5.46-2.38.46-.92 0-1.747-.173-2.48-.52a4.086 4.086 0 01-1.7-1.48c-.4-.653-.6-1.4-.6-2.24 0-.88.213-1.653.64-2.32a4.345 4.345 0 011.78-1.54c.746-.373 1.586-.56 2.52-.56zm.18 7.04c.626 0 1.186-.12 1.68-.36.493-.24.873-.567 1.14-.98.28-.413.42-.873.42-1.38 0-.493-.134-.94-.4-1.34-.254-.413-.634-.74-1.14-.98-.494-.253-1.094-.38-1.8-.38-.92 0-1.667.247-2.24.74-.56.493-.84 1.153-.84 1.98s.286 1.487.86 1.98c.573.48 1.346.72 2.32.72zm104.201 5.38V488h-10.06v-1.36l5.7-5.5c.693-.667 1.16-1.24 1.4-1.72.24-.493.36-.987.36-1.48 0-.733-.26-1.3-.78-1.7-.507-.413-1.24-.62-2.2-.62-1.547 0-2.74.507-3.58 1.52l-1.36-1.18c.546-.667 1.26-1.187 2.14-1.56.893-.373 1.886-.56 2.98-.56 1.466 0 2.633.353 3.5 1.06.866.693 1.3 1.64 1.3 2.84 0 .747-.16 1.453-.48 2.12-.32.667-.927 1.427-1.82 2.28l-4.28 4.12h7.18zm7.405 1.9c-1.106 0-2.093-.28-2.96-.84-.853-.573-1.526-1.4-2.02-2.48-.493-1.08-.74-2.36-.74-3.84s.247-2.76.74-3.84c.494-1.08 1.167-1.9 2.02-2.46.867-.573 1.854-.86 2.96-.86 1.094 0 2.067.287 2.92.86.867.56 1.547 1.38 2.04 2.46.494 1.08.74 2.36.74 3.84s-.246 2.76-.74 3.84c-.493 1.08-1.173 1.907-2.04 2.48-.853.56-1.826.84-2.92.84zm0-1.78c1.12 0 2.014-.46 2.68-1.38.68-.92 1.02-2.253 1.02-4 0-1.747-.34-3.08-1.02-4-.666-.92-1.56-1.38-2.68-1.38-1.133 0-2.04.46-2.72 1.38-.666.92-1 2.253-1 4 0 1.747.334 3.08 1 4 .68.92 1.587 1.38 2.72 1.38zm17.502-.12V488h-10.06v-1.36l5.7-5.5c.693-.667 1.16-1.24 1.4-1.72.24-.493.36-.987.36-1.48 0-.733-.26-1.3-.78-1.7-.507-.413-1.24-.62-2.2-.62-1.547 0-2.74.507-3.58 1.52l-1.36-1.18c.546-.667 1.26-1.187 2.14-1.56.893-.373 1.886-.56 2.98-.56 1.466 0 2.633.353 3.5 1.06.866.693 1.3 1.64 1.3 2.84 0 .747-.16 1.453-.48 2.12-.32.667-.927 1.427-1.82 2.28l-4.28 4.12h7.18zm7.405 1.9c-1.106 0-2.093-.28-2.96-.84-.853-.573-1.526-1.4-2.02-2.48-.493-1.08-.74-2.36-.74-3.84s.247-2.76.74-3.84c.494-1.08 1.167-1.9 2.02-2.46.867-.573 1.854-.86 2.96-.86 1.094 0 2.067.287 2.92.86.867.56 1.547 1.38 2.04 2.46.494 1.08.74 2.36.74 3.84s-.246 2.76-.74 3.84c-.493 1.08-1.173 1.907-2.04 2.48-.853.56-1.826.84-2.92.84zm0-1.78c1.12 0 2.014-.46 2.68-1.38.68-.92 1.02-2.253 1.02-4 0-1.747-.34-3.08-1.02-4-.666-.92-1.56-1.38-2.68-1.38-1.133 0-2.04.46-2.72 1.38-.666.92-1 2.253-1 4 0 1.747.334 3.08 1 4 .68.92 1.587 1.38 2.72 1.38zm102.624-.12V488h-10.06v-1.36l5.7-5.5c.7-.667 1.16-1.24 1.4-1.72.24-.493.36-.987.36-1.48 0-.733-.26-1.3-.78-1.7-.5-.413-1.24-.62-2.2-.62-1.54 0-2.74.507-3.58 1.52l-1.36-1.18c.55-.667 1.26-1.187 2.14-1.56.9-.373 1.89-.56 2.98-.56 1.47 0 2.64.353 3.5 1.06.87.693 1.3 1.64 1.3 2.84 0 .747-.16 1.453-.48 2.12-.32.667-.92 1.427-1.82 2.28l-4.28 4.12h7.18zm7.41 1.9c-1.11 0-2.09-.28-2.96-.84-.85-.573-1.53-1.4-2.02-2.48s-.74-2.36-.74-3.84.25-2.76.74-3.84 1.17-1.9 2.02-2.46c.87-.573 1.85-.86 2.96-.86 1.09 0 2.07.287 2.92.86.87.56 1.55 1.38 2.04 2.46s.74 2.36.74 3.84-.25 2.76-.74 3.84-1.17 1.907-2.04 2.48c-.85.56-1.83.84-2.92.84zm0-1.78c1.12 0 2.01-.46 2.68-1.38.68-.92 1.02-2.253 1.02-4 0-1.747-.34-3.08-1.02-4-.67-.92-1.56-1.38-2.68-1.38-1.13 0-2.04.46-2.72 1.38-.67.92-1 2.253-1 4 0 1.747.33 3.08 1 4 .68.92 1.59 1.38 2.72 1.38zm17.5-.12V488h-10.06v-1.36l5.7-5.5c.69-.667 1.16-1.24 1.4-1.72.24-.493.36-.987.36-1.48 0-.733-.26-1.3-.78-1.7-.51-.413-1.24-.62-2.2-.62-1.55 0-2.74.507-3.58 1.52l-1.36-1.18c.55-.667 1.26-1.187 2.14-1.56.89-.373 1.89-.56 2.98-.56 1.47 0 2.63.353 3.5 1.06.87.693 1.3 1.64 1.3 2.84 0 .747-.16 1.453-.48 2.12-.32.667-.93 1.427-1.82 2.28l-4.28 4.12h7.18zm6.08-12.26v14h-1.98v-12.26h-3.16V474h5.14zm97.97 12.26V488h-10.06v-1.36l5.7-5.5c.7-.667 1.16-1.24 1.4-1.72.24-.493.36-.987.36-1.48 0-.733-.26-1.3-.78-1.7-.5-.413-1.24-.62-2.2-.62-1.54 0-2.74.507-3.58 1.52l-1.36-1.18c.55-.667 1.26-1.187 2.14-1.56.9-.373 1.89-.56 2.98-.56 1.47 0 2.64.353 3.5 1.06.87.693 1.3 1.64 1.3 2.84 0 .747-.16 1.453-.48 2.12-.32.667-.92 1.427-1.82 2.28l-4.28 4.12h7.18zm7.41 1.9c-1.11 0-2.1-.28-2.96-.84-.86-.573-1.53-1.4-2.02-2.48-.5-1.08-.74-2.36-.74-3.84s.24-2.76.74-3.84c.49-1.08 1.16-1.9 2.02-2.46.86-.573 1.85-.86 2.96-.86 1.09 0 2.06.287 2.92.86.86.56 1.54 1.38 2.04 2.46.49 1.08.74 2.36.74 3.84s-.25 2.76-.74 3.84c-.5 1.08-1.18 1.907-2.04 2.48-.86.56-1.83.84-2.92.84zm0-1.78c1.12 0 2.01-.46 2.68-1.38.68-.92 1.02-2.253 1.02-4 0-1.747-.34-3.08-1.02-4-.67-.92-1.56-1.38-2.68-1.38-1.14 0-2.04.46-2.72 1.38-.67.92-1 2.253-1 4 0 1.747.33 3.08 1 4 .68.92 1.58 1.38 2.72 1.38zm17.5-.12V488h-10.06v-1.36l5.7-5.5c.69-.667 1.16-1.24 1.4-1.72.24-.493.36-.987.36-1.48 0-.733-.26-1.3-.78-1.7-.51-.413-1.24-.62-2.2-.62-1.55 0-2.74.507-3.58 1.52l-1.36-1.18c.55-.667 1.26-1.187 2.14-1.56.89-.373 1.89-.56 2.98-.56 1.47 0 2.63.353 3.5 1.06.87.693 1.3 1.64 1.3 2.84 0 .747-.16 1.453-.48 2.12-.32.667-.93 1.427-1.82 2.28l-4.28 4.12h7.18zm11.58 0V488h-10.06v-1.36l5.7-5.5c.7-.667 1.16-1.24 1.4-1.72.24-.493.36-.987.36-1.48 0-.733-.26-1.3-.78-1.7-.5-.413-1.24-.62-2.2-.62-1.54 0-2.74.507-3.58 1.52l-1.36-1.18c.55-.667 1.26-1.187 2.14-1.56.9-.373 1.89-.56 2.98-.56 1.47 0 2.64.353 3.5 1.06.87.693 1.3 1.64 1.3 2.84 0 .747-.16 1.453-.48 2.12-.32.667-.92 1.427-1.82 2.28l-4.28 4.12h7.18zm97.06 0V488h-10.06v-1.36l5.7-5.5c.7-.667 1.16-1.24 1.4-1.72.24-.493.36-.987.36-1.48 0-.733-.26-1.3-.78-1.7-.5-.413-1.24-.62-2.2-.62-1.54 0-2.74.507-3.58 1.52l-1.36-1.18c.55-.667 1.26-1.187 2.14-1.56.9-.373 1.89-.56 2.98-.56 1.47 0 2.64.353 3.5 1.06.87.693 1.3 1.64 1.3 2.84 0 .747-.16 1.453-.48 2.12-.32.667-.92 1.427-1.82 2.28l-4.28 4.12h7.18zm7.41 1.9c-1.11 0-2.09-.28-2.96-.84-.85-.573-1.53-1.4-2.02-2.48s-.74-2.36-.74-3.84.25-2.76.74-3.84 1.17-1.9 2.02-2.46c.87-.573 1.85-.86 2.96-.86 1.09 0 2.07.287 2.92.86.87.56 1.55 1.38 2.04 2.46s.74 2.36.74 3.84-.25 2.76-.74 3.84-1.17 1.907-2.04 2.48c-.85.56-1.83.84-2.92.84zm0-1.78c1.12 0 2.01-.46 2.68-1.38.68-.92 1.02-2.253 1.02-4 0-1.747-.34-3.08-1.02-4-.67-.92-1.56-1.38-2.68-1.38-1.13 0-2.04.46-2.72 1.38-.67.92-1 2.253-1 4 0 1.747.33 3.08 1 4 .68.92 1.59 1.38 2.72 1.38zm17.5-.12V488h-10.06v-1.36l5.7-5.5c.69-.667 1.16-1.24 1.4-1.72.24-.493.36-.987.36-1.48 0-.733-.26-1.3-.78-1.7-.51-.413-1.24-.62-2.2-.62-1.55 0-2.74.507-3.58 1.52l-1.36-1.18c.55-.667 1.26-1.187 2.14-1.56.89-.373 1.89-.56 2.98-.56 1.47 0 2.63.353 3.5 1.06.87.693 1.3 1.64 1.3 2.84 0 .747-.16 1.453-.48 2.12-.32.667-.93 1.427-1.82 2.28l-4.28 4.12h7.18zm7.1-6.38c1.38.133 2.42.56 3.14 1.28.72.707 1.08 1.613 1.08 2.72 0 .8-.2 1.527-.6 2.18-.4.64-1 1.153-1.8 1.54-.78.373-1.75.56-2.9.56-1 0-1.96-.147-2.88-.44-.92-.307-1.67-.727-2.26-1.26l.92-1.58c.48.453 1.1.82 1.84 1.1.75.267 1.54.4 2.38.4 1.04 0 1.85-.22 2.42-.66.59-.44.88-1.047.88-1.82 0-.773-.28-1.373-.86-1.8-.57-.427-1.44-.64-2.6-.64h-1.12v-1.4l3.52-4.32h-6.74V474h9.24v1.36l-3.66 4.52zM37.914 433.16c-1.107 0-2.094-.28-2.96-.84-.854-.573-1.527-1.4-2.02-2.48-.494-1.08-.74-2.36-.74-3.84s.246-2.76.74-3.84c.493-1.08 1.166-1.9 2.02-2.46.866-.573 1.853-.86 2.96-.86 1.093 0 2.066.287 2.92.86.866.56 1.546 1.38 2.04 2.46.493 1.08.74 2.36.74 3.84s-.247 2.76-.74 3.84c-.494 1.08-1.174 1.907-2.04 2.48-.854.56-1.827.84-2.92.84zm0-1.78c1.12 0 2.013-.46 2.68-1.38.68-.92 1.02-2.253 1.02-4 0-1.747-.34-3.08-1.02-4-.667-.92-1.56-1.38-2.68-1.38-1.134 0-2.04.46-2.72 1.38-.667.92-1 2.253-1 4 0 1.747.333 3.08 1 4 .68.92 1.586 1.38 2.72 1.38zm16.23-4.86c-.973 0-1.76-.353-2.36-1.06-.6-.707-.9-1.627-.9-2.76 0-1.133.3-2.053.9-2.76.6-.707 1.387-1.06 2.36-1.06.974 0 1.754.353 2.34 1.06.6.693.9 1.613.9 2.76 0 1.147-.3 2.073-.9 2.78-.586.693-1.366 1.04-2.34 1.04zm8.44-7.52h1.54l-9.56 14h-1.54l9.56-14zm-8.44 6.38c.614 0 1.094-.233 1.44-.7.347-.48.52-1.14.52-1.98 0-.84-.173-1.493-.52-1.96-.346-.48-.826-.72-1.44-.72-.6 0-1.08.24-1.44.72-.346.48-.52 1.133-.52 1.96s.174 1.48.52 1.96c.36.48.84.72 1.44.72zm8.86 7.74c-.973 0-1.76-.347-2.36-1.04-.586-.707-.88-1.633-.88-2.78 0-1.147.294-2.067.88-2.76.6-.707 1.387-1.06 2.36-1.06.974 0 1.76.353 2.36 1.06.6.707.9 1.627.9 2.76 0 1.133-.3 2.053-.9 2.76-.6.707-1.386 1.06-2.36 1.06zm0-1.14c.6 0 1.074-.24 1.42-.72.36-.48.54-1.133.54-1.96s-.18-1.48-.54-1.96c-.346-.48-.82-.72-1.42-.72-.613 0-1.093.24-1.44.72-.346.467-.52 1.12-.52 1.96 0 .84.174 1.5.52 1.98.347.467.827.7 1.44.7zm-40.81-89.48c.92 0 1.74.173 2.46.52a4.019 4.019 0 011.72 1.5c.413.64.62 1.38.62 2.22 0 .88-.22 1.653-.66 2.32-.427.667-1.02 1.187-1.78 1.56-.747.36-1.587.54-2.52.54-1.88 0-3.334-.607-4.36-1.82-1.014-1.213-1.52-2.933-1.52-5.16 0-1.56.273-2.887.82-3.98.56-1.107 1.333-1.94 2.32-2.5 1-.573 2.16-.86 3.48-.86.68 0 1.32.073 1.92.22.6.133 1.12.333 1.56.6l-.76 1.56c-.667-.44-1.56-.66-2.68-.66-1.454 0-2.594.453-3.42 1.36-.827.893-1.24 2.2-1.24 3.92 0 .213.006.38.02.5.4-.6.946-1.053 1.64-1.36.706-.32 1.5-.48 2.38-.48zm-.24 7.04c.92 0 1.666-.247 2.24-.74.573-.493.86-1.153.86-1.98s-.294-1.48-.88-1.96c-.574-.493-1.347-.74-2.32-.74-.627 0-1.187.12-1.68.36-.48.24-.86.567-1.14.98-.267.413-.4.873-.4 1.38 0 .493.126.947.38 1.36.266.4.646.727 1.14.98.506.24 1.106.36 1.8.36zm8.159 1.58c-.373 0-.694-.127-.96-.38-.267-.267-.4-.6-.4-1 0-.387.133-.707.4-.96.267-.267.587-.4.96-.4s.686.127.94.38c.253.253.38.58.38.98s-.134.733-.4 1c-.254.253-.56.38-.92.38zm9.117-8.62c.92 0 1.74.173 2.46.52a4.02 4.02 0 011.72 1.5c.413.64.62 1.38.62 2.22 0 .88-.22 1.653-.66 2.32-.427.667-1.02 1.187-1.78 1.56-.747.36-1.587.54-2.52.54-1.88 0-3.334-.607-4.36-1.82-1.014-1.213-1.52-2.933-1.52-5.16 0-1.56.273-2.887.82-3.98.56-1.107 1.333-1.94 2.32-2.5 1-.573 2.16-.86 3.48-.86.68 0 1.32.073 1.92.22.6.133 1.12.333 1.56.6l-.76 1.56c-.667-.44-1.56-.66-2.68-.66-1.454 0-2.594.453-3.42 1.36-.827.893-1.24 2.2-1.24 3.92 0 .213.006.38.02.5.4-.6.946-1.053 1.64-1.36.706-.32 1.5-.48 2.38-.48zm-.24 7.04c.92 0 1.666-.247 2.24-.74.573-.493.86-1.153.86-1.98s-.294-1.48-.88-1.96c-.574-.493-1.347-.74-2.32-.74-.627 0-1.187.12-1.68.36-.48.24-.86.567-1.14.98a2.49 2.49 0 00-.4 1.38c0 .493.126.947.38 1.36.266.4.646.727 1.14.98.506.24 1.106.36 1.8.36zm15.154-5.02c-.973 0-1.76-.353-2.36-1.06-.6-.707-.9-1.627-.9-2.76 0-1.133.3-2.053.9-2.76.6-.707 1.387-1.06 2.36-1.06.974 0 1.754.353 2.34 1.06.6.693.9 1.613.9 2.76 0 1.147-.3 2.073-.9 2.78-.586.693-1.366 1.04-2.34 1.04zm8.44-7.52h1.54l-9.56 14h-1.54l9.56-14zm-8.44 6.38c.614 0 1.094-.233 1.44-.7.347-.48.52-1.14.52-1.98 0-.84-.173-1.493-.52-1.96-.346-.48-.826-.72-1.44-.72-.6 0-1.08.24-1.44.72-.346.48-.52 1.133-.52 1.96s.174 1.48.52 1.96c.36.48.84.72 1.44.72zm8.86 7.74c-.973 0-1.76-.347-2.36-1.04-.586-.707-.88-1.633-.88-2.78 0-1.147.294-2.067.88-2.76.6-.707 1.387-1.06 2.36-1.06.974 0 1.76.353 2.36 1.06.6.707.9 1.627.9 2.76 0 1.133-.3 2.053-.9 2.76-.6.707-1.386 1.06-2.36 1.06zm0-1.14c.6 0 1.074-.24 1.42-.72.36-.48.54-1.133.54-1.96s-.18-1.48-.54-1.96c-.346-.48-.82-.72-1.42-.72-.613 0-1.093.24-1.44.72-.346.467-.52 1.12-.52 1.96 0 .84.174 1.5.52 1.98.347.467.827.7 1.44.7zM14.554 255v14h-1.98v-12.26h-3.16V255h5.14zm8.522 5.88c1.374.133 2.42.56 3.14 1.28.72.707 1.08 1.613 1.08 2.72 0 .8-.2 1.527-.6 2.18-.4.64-1 1.153-1.8 1.54-.786.373-1.753.56-2.9.56-1 0-1.96-.147-2.88-.44-.92-.307-1.673-.727-2.26-1.26l.92-1.58c.48.453 1.094.82 1.84 1.1.747.267 1.54.4 2.38.4 1.04 0 1.847-.22 2.42-.66.587-.44.88-1.047.88-1.82 0-.773-.286-1.373-.86-1.8-.573-.427-1.44-.64-2.6-.64h-1.12v-1.4l3.52-4.32h-6.74V255h9.24v1.36l-3.66 4.52zm7.506 8.24c-.374 0-.694-.127-.96-.38-.267-.267-.4-.6-.4-1 0-.387.133-.707.4-.96.266-.267.586-.4.96-.4.373 0 .686.127.94.38.253.253.38.58.38.98s-.134.733-.4 1c-.254.253-.56.38-.92.38zm8.866-8.24c1.373.133 2.42.56 3.14 1.28.72.707 1.08 1.613 1.08 2.72 0 .8-.2 1.527-.6 2.18-.4.64-1 1.153-1.8 1.54-.787.373-1.753.56-2.9.56-1 0-1.96-.147-2.88-.44-.92-.307-1.673-.727-2.26-1.26l.92-1.58c.48.453 1.093.82 1.84 1.1.747.267 1.54.4 2.38.4 1.04 0 1.847-.22 2.42-.66.587-.44.88-1.047.88-1.82 0-.773-.286-1.373-.86-1.8-.573-.427-1.44-.64-2.6-.64h-1.12v-1.4l3.52-4.32h-6.74V255h9.24v1.36l-3.66 4.52zm14.697 1.64c-.974 0-1.76-.353-2.36-1.06-.6-.707-.9-1.627-.9-2.76 0-1.133.3-2.053.9-2.76.6-.707 1.386-1.06 2.36-1.06.973 0 1.753.353 2.34 1.06.6.693.9 1.613.9 2.76 0 1.147-.3 2.073-.9 2.78-.587.693-1.367 1.04-2.34 1.04zm8.44-7.52h1.54l-9.56 14h-1.54l9.56-14zm-8.44 6.38c.613 0 1.093-.233 1.44-.7.346-.48.52-1.14.52-1.98 0-.84-.174-1.493-.52-1.96-.347-.48-.827-.72-1.44-.72-.6 0-1.08.24-1.44.72-.347.48-.52 1.133-.52 1.96s.173 1.48.52 1.96c.36.48.84.72 1.44.72zm8.86 7.74c-.974 0-1.76-.347-2.36-1.04-.587-.707-.88-1.633-.88-2.78 0-1.147.293-2.067.88-2.76.6-.707 1.386-1.06 2.36-1.06.973 0 1.76.353 2.36 1.06.6.707.9 1.627.9 2.76 0 1.133-.3 2.053-.9 2.76-.6.707-1.387 1.06-2.36 1.06zm0-1.14c.6 0 1.073-.24 1.42-.72.36-.48.54-1.133.54-1.96s-.18-1.48-.54-1.96c-.347-.48-.82-.72-1.42-.72-.614 0-1.094.24-1.44.72-.347.467-.52 1.12-.52 1.96 0 .84.173 1.5.52 1.98.346.467.826.7 1.44.7zm-32.497-82.72V187h-10.06v-1.36l5.7-5.5c.693-.667 1.16-1.24 1.4-1.72.24-.493.36-.987.36-1.48 0-.733-.26-1.3-.78-1.7-.507-.413-1.24-.62-2.2-.62-1.547 0-2.74.507-3.58 1.52l-1.36-1.18c.547-.667 1.26-1.187 2.14-1.56.893-.373 1.887-.56 2.98-.56 1.466 0 2.633.353 3.5 1.06.866.693 1.3 1.64 1.3 2.84 0 .747-.16 1.453-.48 2.12-.32.667-.927 1.427-1.82 2.28l-4.28 4.12h7.18zm7.406 1.9c-1.107 0-2.094-.28-2.96-.84-.854-.573-1.527-1.4-2.02-2.48-.494-1.08-.74-2.36-.74-3.84s.246-2.76.74-3.84c.493-1.08 1.166-1.9 2.02-2.46.866-.573 1.853-.86 2.96-.86 1.093 0 2.066.287 2.92.86.866.56 1.546 1.38 2.04 2.46.493 1.08.74 2.36.74 3.84s-.247 2.76-.74 3.84c-.494 1.08-1.174 1.907-2.04 2.48-.854.56-1.827.84-2.92.84zm0-1.78c1.12 0 2.013-.46 2.68-1.38.68-.92 1.02-2.253 1.02-4 0-1.747-.34-3.08-1.02-4-.667-.92-1.56-1.38-2.68-1.38-1.134 0-2.04.46-2.72 1.38-.667.92-1 2.253-1 4 0 1.747.333 3.08 1 4 .68.92 1.586 1.38 2.72 1.38zm16.23-4.86c-.973 0-1.76-.353-2.36-1.06-.6-.707-.9-1.627-.9-2.76 0-1.133.3-2.053.9-2.76.6-.707 1.387-1.06 2.36-1.06.974 0 1.754.353 2.34 1.06.6.693.9 1.613.9 2.76 0 1.147-.3 2.073-.9 2.78-.586.693-1.366 1.04-2.34 1.04zm8.44-7.52h1.54l-9.56 14h-1.54l9.56-14zm-8.44 6.38c.614 0 1.094-.233 1.44-.7.347-.48.52-1.14.52-1.98 0-.84-.173-1.493-.52-1.96-.346-.48-.826-.72-1.44-.72-.6 0-1.08.24-1.44.72-.346.48-.52 1.133-.52 1.96s.174 1.48.52 1.96c.36.48.84.72 1.44.72zm8.86 7.74c-.973 0-1.76-.347-2.36-1.04-.586-.707-.88-1.633-.88-2.78 0-1.147.294-2.067.88-2.76.6-.707 1.387-1.06 2.36-1.06.974 0 1.76.353 2.36 1.06.6.707.9 1.627.9 2.76 0 1.133-.3 2.053-.9 2.76-.6.707-1.386 1.06-2.36 1.06zm0-1.14c.6 0 1.074-.24 1.42-.72.36-.48.54-1.133.54-1.96s-.18-1.48-.54-1.96c-.346-.48-.82-.72-1.42-.72-.613 0-1.093.24-1.44.72-.346.467-.52 1.12-.52 1.96 0 .84.174 1.5.52 1.98.347.467.827.7 1.44.7zm-48.536-82.72V105H4.408v-1.36l5.7-5.5c.693-.667 1.16-1.24 1.4-1.72.24-.493.36-.987.36-1.48 0-.733-.26-1.3-.78-1.7-.507-.413-1.24-.62-2.2-.62-1.547 0-2.74.507-3.58 1.52l-1.36-1.18c.547-.667 1.26-1.187 2.14-1.56.893-.373 1.887-.56 2.98-.56 1.467 0 2.633.353 3.5 1.06.867.693 1.3 1.64 1.3 2.84 0 .747-.16 1.453-.48 2.12-.32.667-.927 1.427-1.82 2.28l-4.28 4.12h7.18zm7.726-6.76c.92 0 1.74.173 2.46.52a4.016 4.016 0 011.72 1.5c.413.64.62 1.38.62 2.22 0 .88-.22 1.653-.66 2.32-.427.667-1.02 1.187-1.78 1.56-.747.36-1.587.54-2.52.54-1.88 0-3.334-.607-4.36-1.82-1.014-1.213-1.52-2.933-1.52-5.16 0-1.56.273-2.887.82-3.98.56-1.107 1.333-1.94 2.32-2.5 1-.573 2.16-.86 3.48-.86.68 0 1.32.073 1.92.22.6.133 1.12.333 1.56.6l-.76 1.56c-.667-.44-1.56-.66-2.68-.66-1.454 0-2.594.453-3.42 1.36-.827.893-1.24 2.2-1.24 3.92 0 .213.006.38.02.5.4-.6.946-1.053 1.64-1.36.706-.32 1.5-.48 2.38-.48zm-.24 7.04c.92 0 1.666-.247 2.24-.74.573-.493.86-1.153.86-1.98s-.294-1.48-.88-1.96c-.574-.493-1.347-.74-2.32-.74-.627 0-1.187.12-1.68.36-.48.24-.86.567-1.14.98a2.49 2.49 0 00-.4 1.38c0 .493.126.947.38 1.36.266.4.646.727 1.14.98.506.24 1.106.36 1.8.36zm8.159 1.58c-.373 0-.694-.127-.96-.38-.267-.267-.4-.6-.4-1 0-.387.133-.707.4-.96.267-.267.587-.4.96-.4s.686.127.94.38c.253.253.38.58.38.98s-.134.733-.4 1c-.254.253-.56.38-.92.38zm9.117-8.62c.92 0 1.74.173 2.46.52a4.015 4.015 0 011.72 1.5c.413.64.62 1.38.62 2.22 0 .88-.22 1.653-.66 2.32-.427.667-1.02 1.187-1.78 1.56-.747.36-1.587.54-2.52.54-1.88 0-3.334-.607-4.36-1.82-1.014-1.213-1.52-2.933-1.52-5.16 0-1.56.273-2.887.82-3.98.56-1.107 1.333-1.94 2.32-2.5 1-.573 2.16-.86 3.48-.86.68 0 1.32.073 1.92.22.6.133 1.12.333 1.56.6l-.76 1.56c-.667-.44-1.56-.66-2.68-.66-1.454 0-2.594.453-3.42 1.36-.827.893-1.24 2.2-1.24 3.92 0 .213.006.38.02.5.4-.6.946-1.053 1.64-1.36.706-.32 1.5-.48 2.38-.48zm-.24 7.04c.92 0 1.666-.247 2.24-.74.573-.493.86-1.153.86-1.98s-.294-1.48-.88-1.96c-.574-.493-1.347-.74-2.32-.74-.627 0-1.187.12-1.68.36-.48.24-.86.567-1.14.98a2.49 2.49 0 00-.4 1.38c0 .493.126.947.38 1.36.266.4.646.727 1.14.98.506.24 1.106.36 1.8.36zm15.154-5.02c-.973 0-1.76-.353-2.36-1.06-.6-.707-.9-1.627-.9-2.76 0-1.133.3-2.053.9-2.76.6-.707 1.387-1.06 2.36-1.06.974 0 1.754.353 2.34 1.06.6.693.9 1.613.9 2.76 0 1.147-.3 2.073-.9 2.78-.586.693-1.366 1.04-2.34 1.04zm8.44-7.52h1.54l-9.56 14h-1.54l9.56-14zm-8.44 6.38c.614 0 1.094-.233 1.44-.7.347-.48.52-1.14.52-1.98 0-.84-.173-1.493-.52-1.96-.346-.48-.826-.72-1.44-.72-.6 0-1.08.24-1.44.72-.346.48-.52 1.133-.52 1.96s.174 1.48.52 1.96c.36.48.84.72 1.44.72zm8.86 7.74c-.973 0-1.76-.347-2.36-1.04-.586-.707-.88-1.633-.88-2.78 0-1.147.294-2.067.88-2.76.6-.707 1.387-1.06 2.36-1.06.974 0 1.76.353 2.36 1.06.6.707.9 1.627.9 2.76 0 1.133-.3 2.053-.9 2.76-.6.707-1.386 1.06-2.36 1.06zm0-1.14c.6 0 1.074-.24 1.42-.72.36-.48.54-1.133.54-1.96s-.18-1.48-.54-1.96c-.346-.48-.82-.72-1.42-.72-.613 0-1.093.24-1.44.72-.346.467-.52 1.12-.52 1.96 0 .84.174 1.5.52 1.98.347.467.827.7 1.44.7zm-51.375-89.1c1.373.133 2.42.56 3.14 1.28.72.707 1.08 1.613 1.08 2.72 0 .8-.2 1.527-.6 2.18-.4.64-1 1.153-1.8 1.54-.787.373-1.754.56-2.9.56-1 0-1.96-.147-2.88-.44-.92-.307-1.674-.727-2.26-1.26l.92-1.58c.48.453 1.093.82 1.84 1.1.746.267 1.54.4 2.38.4 1.04 0 1.846-.22 2.42-.66.586-.44.88-1.047.88-1.82 0-.773-.287-1.373-.86-1.8-.574-.427-1.44-.64-2.6-.64h-1.12v-1.4l3.52-4.32h-6.74V9h9.24v1.36l-3.66 4.52zm11.447 0c1.374.133 2.42.56 3.14 1.28.72.707 1.08 1.613 1.08 2.72 0 .8-.2 1.527-.6 2.18-.4.64-1 1.153-1.8 1.54-.786.373-1.753.56-2.9.56-1 0-1.96-.147-2.88-.44-.92-.307-1.673-.727-2.26-1.26l.92-1.58c.48.453 1.094.82 1.84 1.1.747.267 1.54.4 2.38.4 1.04 0 1.847-.22 2.42-.66.587-.44.88-1.047.88-1.82 0-.773-.286-1.373-.86-1.8-.573-.427-1.44-.64-2.6-.64h-1.12v-1.4l3.52-4.32h-6.74V9h9.24v1.36l-3.66 4.52zm7.506 8.24c-.374 0-.694-.127-.96-.38-.267-.267-.4-.6-.4-1 0-.387.133-.707.4-.96.266-.267.586-.4.96-.4.373 0 .686.127.94.38.253.253.38.58.38.98s-.134.733-.4 1c-.254.253-.56.38-.92.38zm8.866-8.24c1.373.133 2.42.56 3.14 1.28.72.707 1.08 1.613 1.08 2.72 0 .8-.2 1.527-.6 2.18-.4.64-1 1.153-1.8 1.54-.787.373-1.753.56-2.9.56-1 0-1.96-.147-2.88-.44-.92-.307-1.673-.727-2.26-1.26l.92-1.58c.48.453 1.093.82 1.84 1.1.747.267 1.54.4 2.38.4 1.04 0 1.847-.22 2.42-.66.587-.44.88-1.047.88-1.82 0-.773-.286-1.373-.86-1.8-.573-.427-1.44-.64-2.6-.64h-1.12v-1.4l3.52-4.32h-6.74V9h9.24v1.36l-3.66 4.52zm14.697 1.64c-.974 0-1.76-.353-2.36-1.06-.6-.707-.9-1.627-.9-2.76 0-1.133.3-2.053.9-2.76.6-.707 1.386-1.06 2.36-1.06.973 0 1.753.353 2.34 1.06.6.693.9 1.613.9 2.76 0 1.147-.3 2.073-.9 2.78-.587.693-1.367 1.04-2.34 1.04zM62.584 9h1.54l-9.56 14h-1.54l9.56-14zm-8.44 6.38c.613 0 1.093-.233 1.44-.7.346-.48.52-1.14.52-1.98 0-.84-.174-1.493-.52-1.96-.347-.48-.827-.72-1.44-.72-.6 0-1.08.24-1.44.72-.347.48-.52 1.133-.52 1.96s.173 1.48.52 1.96c.36.48.84.72 1.44.72zm8.86 7.74c-.974 0-1.76-.347-2.36-1.04-.587-.707-.88-1.633-.88-2.78 0-1.147.293-2.067.88-2.76.6-.707 1.386-1.06 2.36-1.06.973 0 1.76.353 2.36 1.06.6.707.9 1.627.9 2.76 0 1.133-.3 2.053-.9 2.76-.6.707-1.387 1.06-2.36 1.06zm0-1.14c.6 0 1.073-.24 1.42-.72.36-.48.54-1.133.54-1.96s-.18-1.48-.54-1.96c-.347-.48-.82-.72-1.42-.72-.614 0-1.094.24-1.44.72-.347.467-.52 1.12-.52 1.96 0 .84.173 1.5.52 1.98.346.467.826.7 1.44.7z" fill="#fff"/></svg>