<svg width="453" height="454" viewBox="0 0 453 454" fill="none" xmlns="http://www.w3.org/2000/svg"><mask id="mask0_272_1264" style="mask-type:luminance" maskUnits="userSpaceOnUse" x="74" y="235" width="379" height="219"><path d="M263.721 453.532c104.398 0 189.029-48.872 189.029-109.159 0-60.286-84.631-109.158-189.029-109.158s-189.03 48.872-189.03 109.158c0 60.287 84.632 109.159 189.03 109.159z" fill="#fff"/></mask><g mask="url(#mask0_272_1264)" fill="#150035"><path d="M560.102 93.565l-678.805 391.392 1.463 2.537L561.565 96.102l-1.463-2.537zm8.049 4.095l-678.805 391.392 1.463 2.537 678.805-391.392-1.463-2.538zm7.397 4.539L-103.257 493.67l1.463 2.537 678.805-391.47-1.463-2.538zm8.024 4.383L-95.233 497.975l1.463 2.537L585.034 109.12l-1.462-2.538zm6.756 4.715L-88.477 502.689l1.463 2.538 678.805-391.393-1.463-2.537zm8.049 4.325L-80.506 506.857l1.463 2.538L599.84 118.159l-1.463-2.537zm7.285 4.498L-73.143 511.513l1.463 2.537 678.805-391.392-1.463-2.538zm8.18 4.169L-64.963 515.682l1.463 2.537 678.805-391.392-1.463-2.538zm7.297 4.563L-57.666 520.244l1.463 2.537 678.805-391.392-1.463-2.537zm8.158 4.101L-49.508 524.346l1.463 2.537L630.76 135.491l-1.463-2.538zm7.284 4.737L-42.224 529.082l1.463 2.537 678.805-391.392-1.463-2.537zm8.181 4.171L-34.043 533.253l1.463 2.537 678.805-391.392-1.463-2.537zm6.759 4.712L-27.284 537.965l1.463 2.537L652.984 149.11l-1.463-2.537zm8.006 4.113L-19.278 542.078l1.463 2.537L660.99 153.223l-1.463-2.537zm7.296 4.558L-11.981 546.636l1.463 2.537 678.804-391.392-1.463-2.537zm8.19 4.391L-3.792 551.027l1.463 2.538 678.805-391.393-1.463-2.537zm7.287 4.337L3.495 555.364l1.463 2.537 678.805-391.392-1.463-2.537zM452.825 31.99l-678.804 391.393 1.462 2.537L454.288 34.528l-1.463-2.537zm8.136 4.196l-678.805 391.392 1.463 2.537L462.424 38.723l-1.463-2.537zm6.773 4.556l-678.805 391.392 1.463 2.537L469.197 43.279l-1.463-2.537zm8.035 4.261l-678.805 391.393 1.463 2.537L477.232 47.541l-1.463-2.538zm7.283 4.722l-678.805 391.392 1.463 2.537L484.515 52.262l-1.463-2.537zm8.291 4.195L-187.54 445.235l1.463 2.538L492.806 56.458l-1.463-2.538zm7.199 4.386l-678.805 391.392 1.463 2.537L500.005 60.843l-1.463-2.537zm8.133 4.424L-172.13 454.124l1.463 2.537L508.138 65.268l-1.463-2.537zm7.41 4.589l-678.883 391.314 1.463 2.537L515.548 69.856l-1.463-2.537zm8.068 4.141l-678.805 391.393 1.463 2.537L523.615 73.998l-1.462-2.538zm6.771 4.552l-678.805 391.392 1.463 2.538L530.387 78.549l-1.463-2.537zm7.979 4.453l-678.805 391.392 1.463 2.538L538.365 83.002l-1.462-2.537zm7.297 4.559l-678.804 391.392 1.462 2.537L545.663 87.561l-1.463-2.537zm8.204 4.214L-126.4 480.63l1.463 2.537L553.867 91.775l-1.463-2.537z"/><path d="M559.691 93.585l-678.805 391.393 1.463 2.537L561.154 96.123l-1.463-2.538zm229.708 132.139L110.594 617.116l1.463 2.537 678.805-391.392-1.463-2.537zm8.032 4.516L118.548 621.476l1.462 2.537 678.883-391.235-1.462-2.538zm7.287 4.499L125.913 626.131l1.463 2.537 678.805-391.392-1.463-2.537zm8.137 4.191L134.05 630.322l1.463 2.537 678.805-391.392-1.463-2.537zm6.885 4.512l-678.804 391.47 1.463 2.537 678.805-391.47-1.464-2.537zm7.923 4.276L148.858 639.11l1.463 2.538 678.805-391.393-1.463-2.537zm7.285 4.753L156.143 643.863l1.462 2.537L836.41 255.008l-1.462-2.537zm8.178 4.17L164.321 648.033l1.463 2.538 678.805-391.393-1.463-2.537zm7.263 4.644L171.506 652.521l1.462 2.537 678.883-391.236-1.462-2.537zm8.196 3.972L179.78 656.649l1.463 2.538 678.805-391.393-1.463-2.537zm7.282 4.782L187.062 661.432l1.463 2.537L867.33 272.577l-1.463-2.538zm8.178 4.171L195.24 665.603l1.463 2.537 678.805-391.393-1.463-2.537zm6.73 4.539L201.97 670.142l1.463 2.537 678.805-391.392-1.463-2.538zm8.035 4.265L210.005 674.406l1.463 2.537 678.805-391.392-1.463-2.537zm7.284 4.758L217.289 679.164l1.463 2.537 678.805-391.392-1.463-2.537zm8.334 4.237L225.545 683.323l1.463 2.538 678.883-391.314-1.463-2.538zm7.157 4.291L232.78 687.692l1.463 2.538 678.805-391.393-1.463-2.537zM690.246 168.536L11.441 559.929l1.463 2.537L691.71 171.074l-1.463-2.538zm6.77 4.775L18.133 564.547l1.462 2.537 678.883-391.235-1.462-2.538zm8.024 4.182L26.235 568.885l1.463 2.537L706.503 180.03l-1.463-2.537zm7.416 4.604L33.573 573.411l1.463 2.538 678.883-391.314-1.463-2.538zm8.061 4.148L41.712 577.637l1.463 2.537L721.98 188.782l-1.463-2.537zm7.267 4.399L48.98 582.036l1.462 2.537 678.805-391.392-1.463-2.537zm8.297 4.239L57.276 586.354l1.464 2.537L737.545 197.42l-1.464-2.537zm7.189 4.573L64.465 590.849l1.463 2.537 678.805-391.392-1.463-2.538zm8.137 4.195L72.602 595.043l1.462 2.537L752.87 206.188l-1.462-2.537zm6.759 4.714L79.361 599.757l1.463 2.537L759.63 210.902l-1.463-2.537zm8.022 4.45L87.383 604.207l1.463 2.537L767.65 215.352l-1.463-2.537zm7.298 4.561L94.681 608.769l1.463 2.537 678.805-391.392-1.463-2.538zm8.216 4.247L102.818 612.858l1.463 2.538L783.164 224.16l-1.462-2.537z"/><path d="M788.918 226.13L110.113 617.522l1.463 2.538 678.805-391.393-1.463-2.537z"/></g><path d="M250.289 127.192l2.482-108.265c0-.05 0-.05-.05-.05-35.095-.893-70.538 4.021-101.662 14.793-.05 0-.05.05 0 .1l99.18 93.472s.05 0 .05-.05z" fill="#fff"/><path d="M249.743 130.221l-1.29-1.142-100.224-94.465.596-2.929 1.44-.496c30.876-10.673 66.368-15.835 102.506-14.892l2.482.05.05 2.531-2.482 109.903-3.078 1.44zm-93.919-95.458l92.033 86.721L250.14 21.36c-33.06-.546-65.574 4.021-94.316 13.403z" fill="#150035"/><path d="M250.339 172.563l126.334-75.651v-.1c-33.905-20.55-78.581-31.421-123.852-32.613-.05 0-.05 0-.05.05l-2.482 108.265c0 .049.05.049.05.049z" fill="#30B1D4"/><path d="M250.637 175.542l-2.879-1.39-.05-1.638 2.532-110.796 2.531-.05c47.704 1.241 92.182 12.956 125.192 32.96l1.241.746v2.879l-1.241.844-126.185 75.601-1.141.844zm4.616-108.712l-2.333 101.217 118.789-71.184c-31.224-17.97-72.326-28.543-116.456-30.032z" fill="#150035"/><path d="M250.289 172.515l.149 86.373c0 .05.05.05.05.05l126.185-70.787s.049 0 .049-.049v-91.19c0-.049-.049-.049-.049-.049l-126.384 75.652z" fill="#150035"/><path d="M250.488 261.867l-2.631-1.44-.05-1.539-.149-87.912 1.44-.745 127.426-76.346 2.631 1.489.049 1.49v92.776l-1.439.745-127.277 71.482zm2.333-87.913l.099 80.665 121.171-68.007v-85.331l-121.27 72.673z" fill="#150035"/><path d="M427.306 302.322V218.53c0-.05 0-.05-.05-.05l-176.47 3.277c-.05 0-.05 0-.05.049l-.248 108.017h.397l38.124 98.337s.05 0 .05.05c31.074-4.468 60.511-13.701 84.834-27.7 33.954-19.607 51.527-43.633 53.115-69.297l.149-1.34c0-.05.298-25.317.149-27.551z" fill="#30B1D4"/><path d="M288.413 430.889l-1.34-.893-37.826-97.593-1.241.05.248-113.229 181.583-3.375.05 2.631v83.742c.099 2.681-.099 25.019-.099 27.6l-.149 1.589c-1.638 27.004-20.452 51.675-54.356 71.233-23.728 13.701-53.363 23.381-85.728 28.047l-1.142.198zm-35.344-102.606l.248.596 37.429 96.451c30.975-4.667 59.22-13.999 81.956-27.104 32.365-18.665 50.285-41.946 51.824-67.262l.149-1.44c.099-9.878.198-25.515.099-27.054v-81.409l-171.457 3.177-.248 104.045z" fill="#150035"/><path d="M426.958 331.163l.149-1.34s.249-25.267.1-27.501V218.53c0-.05 0-.05-.05-.05l-37.776.695h-.05c-29.188 22.239-89.947 69.298-90.245 69.546l-10.127 31.77-.248 106.924.248.646s.05.049.099.049c31.075-4.467 60.512-13.7 84.786-27.699 33.953-19.508 51.526-43.584 53.114-69.248z" fill="#150035"/><path d="M287.421 430.99l-1.241-3.525.397-107.719 9.878-31.074-.198-.695 1.042-1.043 1.39-1.092c18.714-14.495 64.83-50.136 89.104-68.652l.695-.546h.893l40.358-.745.049 2.631v83.793c.149 2.085-.099 24.919-.099 27.5l-.149 1.539c-1.688 27.104-20.452 51.725-54.356 71.333-23.728 13.701-53.363 23.38-85.728 28.046l-2.035.249zm4.12-110.052l-.248 104.343c30.677-4.666 58.724-13.998 81.31-27.004 32.365-18.665 50.285-41.946 51.824-67.262l.149-1.44c.099-9.878.199-25.515.099-27.054v-81.409l-34.45.645c-24.721 18.913-69.943 53.859-88.409 68.156l-.496.397-9.779 30.628z" fill="#150035"/><path d="M250.637 221.757l38.322 98.783.049.05c31.075-4.468 60.512-13.701 84.835-27.699 70.042-40.457 71.134-105.634 3.227-146.835h-.05l-126.334 75.701h-.049z" fill="#fff"/><path d="M287.42 323.369l-.794-1.886-38.67-99.727.596-1.688.844-.546 127.823-76.594 1.439 1.042c33.209 20.154 51.427 46.91 51.13 75.205-.298 28.791-19.708 55.696-54.654 75.85-23.728 13.7-53.363 23.38-85.728 28.046l-1.986.298zm-33.606-100.521l36.833 94.962c30.975-4.667 59.27-13.999 81.955-27.104 33.309-19.211 51.775-44.626 52.073-71.531.297-26.061-16.58-50.931-47.605-70.191l-123.256 73.864z" fill="#150035"/><path d="M288.711 387.307l-30.827-38.223-7.446-19.211v-.049l-120.575-69.596-.1-4.616h-7.892l-5.957-3.425h-.05a155.697 155.697 0 00-5.659 3.474l-47.654 28.891v41.747c-.15 27.004 17.672 54.058 53.363 74.708 46.86 27.054 112.881 36.287 172.846 27.7.05 0 .05 0 .05-.05l-.05-.099-.049-41.251z" fill="#30B1D4"/><path d="M244.184 434.415c-48.102 0-94.416-10.921-129.61-31.224-35.394-20.402-54.803-47.754-54.654-76.892v-43.287l1.44-.744 47.455-28.791c1.837-1.142 3.723-2.333 5.709-3.475l.595-.348h1.39l6.056 3.475h9.73l.099 5.659 119.98 69.298.447.943 7.297 18.863 31.124 38.421v41.797l.298.695-1.241 2.284-1.29.198a323.965 323.965 0 01-44.825 3.128zM65.033 285.991v40.308c-.15 27.302 18.367 53.015 52.072 72.474 43.882 25.316 108.464 35.89 169.024 27.699V388.2l-30.826-38.223v-.447l-6.95-17.92-121.072-69.893-.049-3.525h-6.404l-.546-.496-4.418-2.532a334.75 334.75 0 00-4.368 2.681l-46.463 28.146z" fill="#150035"/><path d="M184.516 425.132c29.188 5.56 60.312 6.752 90.345 3.575v-56.292l-19.906-24.671-4.865-12.51h-65.574v89.898z" fill="#150035"/><path d="M241.9 433.025c-19.608 0-39.216-1.787-57.881-5.361l-2.084-.398v-94.564h69.893l5.361 13.8 20.203 25.068v59.469l-2.283.248a321.262 321.262 0 01-33.209 1.738zm-54.853-10.028c27.451 5.014 56.838 6.205 85.232 3.426v-53.066l-19.905-24.671v-.446l-4.071-10.425h-61.305v85.182h.049zm-59.518-16.727c10.325 5.014 21.346 9.233 32.912 12.757v-89.501h-32.912v76.744z" fill="#150035"/><path d="M162.973 422.452l-3.277-.993c-11.864-3.574-23.033-7.893-33.259-12.857l-1.439-.695v-80.913h38.024v95.458h-.049zm-32.912-17.771c8.638 4.12 17.97 7.744 27.799 10.871v-83.495h-27.799v72.624z" fill="#150035"/><path d="M288.76 387.208l-38.322-98.784-134.524-77.687h-.05c-71.134 41.102-71.134 107.719.05 148.821 46.86 27.054 112.881 36.287 172.846 27.699v-.049z" fill="#30B1D4"/><path d="M244.184 393.016c-48.052 0-94.416-10.921-129.61-31.224-35.245-20.352-54.654-47.555-54.654-76.595 0-29.039 19.41-56.242 54.654-76.594l1.39-.794 1.389.893 135.071 77.985.447.943 38.769 99.975-1.291 2.184-1.291.149c-14.991 2.035-29.982 3.078-44.874 3.078zm-128.32-179.3c-32.762 19.26-50.831 44.626-50.831 71.481 0 27.153 18.516 52.817 52.122 72.177 43.683 25.217 107.768 35.79 168.081 27.848l-36.833-95.011-132.539-76.495z" fill="#150035"/><path d="M151.109 3.342c-12.509 4.318-24.373 9.63-35.145 15.835-.05 0-.05.05 0 .1l134.127 77.438c.05.05.1-.05.05-.1L151.159 3.342h-.05z" fill="#30B1D4"/><path d="M250.786 100.089l-2.035-1.191-135.319-78.134-.099-2.978 1.291-.794c10.672-6.156 22.586-11.517 35.443-15.984l1.241-.646 1.29.943 100.869 95.011-2.681 3.773zM121.027 19.225l111.69 64.483-82.204-77.439c-10.573 3.723-20.451 8.092-29.486 12.957z" fill="#150035"/><path d="M115.914 19.275v191.511l134.425 77.588c.05 0 .05 0 .05-.05l-.248-191.66v-.05L115.964 19.226s-.05 0-.05.05z" fill="#fff"/><path d="M250.439 291.352l-1.34-.695-135.716-78.381-.05-1.539V17.786l2.532-1.539 1.34.695 135.468 78.183.049 1.539.248 193.1-2.531 1.588zm-131.993-82.005l129.412 74.708-.249-185.902-129.163-74.51v185.704z" fill="#150035"/><path d="M344.01 165.811l13.949-8.687v-48.448l-13.949 8.389v48.746z" fill="#30B1D4"/><path d="M341.429 170.379v-54.803l19.111-11.417v54.406l-19.111 11.814zm5.113-51.874v42.74l8.885-5.51v-42.541l-8.885 5.311z" fill="#150035"/><path d="M416.434 266.334h-5.113v89.6h5.113v-89.6zm-81.806-139.985h-5.113v41.697h5.113v-41.697z" fill="#30B1D4"/><path d="M130.111 26.77h-5.113v191.512h5.113V26.77zm78.68 45.57h-5.113v191.512h5.113V72.341zm66.715 206.899h-5.112v67.262h5.112v-67.262z" fill="#150035"/><path d="M307.226 320.59h-5.113v98.436h5.113V320.59zM9.38 51.52a.632.632 0 010-1.072l25.306-15.454c.636-.516 2.145-1.31 2.145-1.31l.994-.358c4.052-1.867 8.422-1.033 14.381 2.264l104.126 57.804c13.071 7.27 23.956 25.426 24.234 40.363l1.033 61.379c.119 6.397-1.748 11.204-4.966 13.985 0 0-1.867 1.39-2.94 1.827l-24.869 15.454a.607.607 0 01-.874-.238 425.952 425.952 0 01-3.258-6.476c-.159-.318-.516-.397-.834-.278-1.55.556-26.3 19.586-28.167 16.884l3.138-48.269c-.834-1.231-1.867-2.185-2.9-2.781L54.51 151.158c-13.07-7.27-23.956-25.426-24.234-40.363l-.794-46.998c0-.199-.12-.437-.318-.517L9.38 51.52z" fill="#30B1D4"/><path d="M117.479 238.36c3.258-.795 9.297-4.609 22.089-13.667a465.9 465.9 0 003.933-2.78c1.072 2.185 2.105 4.171 2.582 5.124.318.676.954 1.153 1.629 1.351.715.199 1.47.08 2.145-.318l24.87-15.454c.953-.397 2.741-1.668 3.099-1.946 3.933-3.457 5.919-8.82 5.8-15.653l-1.033-61.379c-.278-15.613-11.601-34.524-25.267-42.112L53.2 33.723c-6.754-3.735-11.6-4.49-16.21-2.344l-.873.317c-.238.12-1.986 1.033-2.701 1.63L8.308 48.66c-.795.477-1.272 1.35-1.272 2.304 0 .954.477 1.788 1.311 2.265l19.07 11.282.794 46.244c.278 15.612 11.6 34.523 25.267 42.111l61.419 34.086c.636.358 1.271.914 1.827 1.629l-3.138 48.229.397.596c.397.596 1.033.954 1.748 1.113.437.039 1.033 0 1.748-.159zm25.903-21.016c-.08.04-.199.04-.278.079-.636.239-1.629.914-5.92 3.933-4.33 3.059-14.937 10.568-19.387 12.594l3.019-46.561-.397-.596c-1.033-1.509-2.264-2.661-3.615-3.416l-61.42-34.087c-12.513-6.952-22.922-24.273-23.16-38.615l-.795-46.998c0-.913-.516-1.788-1.31-2.264l-17.72-10.488L35.68 36.702c.755-.556 2.026-1.271 2.066-1.271l.755-.239c3.416-1.549 7.15-.913 12.673 2.146L155.3 95.14c12.514 6.953 22.923 24.274 23.161 38.616l1.033 61.379c.08 5.522-1.43 9.932-4.251 12.395-.556.397-1.827 1.271-2.423 1.51l-23.837 14.778c-.675-1.35-1.629-3.217-2.542-5.085-.556-1.152-1.788-1.708-3.059-1.39z" fill="#150035"/><path d="M25.033 52.276l104.444 57.962c12.951 7.191 23.638 25.029 23.916 39.807l1.033 61.737c.238 14.819-10.051 20.976-23.003 13.786l-8.74-4.847c-2.542-1.391-4.568-.199-4.489 2.701l.159 9.535c.079 4.41-4.37 4.37-7.429-.079l-19.268-28.207c-.834-1.232-1.867-2.185-2.9-2.781l-61.737-34.245c-12.951-7.191-23.638-25.029-23.916-39.807L2.07 66.101c-.278-14.858 10.012-21.016 22.963-13.825z" fill="#fff"/><path d="M116.923 238.161c.08-.04.199-.04.278-.08 2.026-.635 3.179-2.582 3.139-5.164l-.159-9.535c0-.834.199-1.152.278-1.192.079-.039.477-.079 1.192.318l8.78 4.847c6.912 3.854 13.467 4.291 18.473 1.311 5.006-2.98 7.667-9.018 7.548-16.924l-1.033-61.737c-.278-15.414-11.441-34.086-24.949-41.555L26.026 50.487c-6.912-3.853-13.467-4.33-18.473-1.31C2.547 52.155-.115 58.193.005 66.1l1.033 61.737c.278 15.415 11.441 34.086 24.948 41.555l61.737 34.246c.795.437 1.55 1.191 2.225 2.145l19.268 28.206c2.145 3.179 5.165 4.808 7.707 4.172zm2.622-19.943a5.908 5.908 0 00-1.152.476c-1.47.874-2.304 2.622-2.264 4.768l.159 9.534c0 .755-.159 1.152-.318 1.192-.517.159-1.987-.397-3.417-2.463l-19.268-28.207c-1.033-1.509-2.264-2.661-3.615-3.416l-61.737-34.245c-12.355-6.873-22.605-23.956-22.843-38.06L4.057 66.061c-.12-6.397 1.867-11.164 5.562-13.349 3.694-2.225 8.82-1.708 14.42 1.39l104.445 57.963c12.355 6.873 22.605 23.956 22.843 38.059l1.033 61.737c.119 6.396-1.867 11.164-5.562 13.349-3.694 2.224-8.819 1.708-14.421-1.391l-8.74-4.847c-1.39-.794-2.821-1.032-4.092-.754z" fill="#150035"/><path d="M133.848 204.472l-97.333-54.029c-.516-.278-.953-.954-1.072-1.629L21.816 74.563c-.159-.914.318-1.43 1.033-1.033l2.543 1.43c8.025 4.45 16.01 11.084 23.24 19.546 7.151 8.383 16.09 20.38 24.433 36.033 19.308 36.113 40.284 17.758 61.697 72.463.437 1.113-.08 1.947-.914 1.47z" fill="#150035"/><path d="M134.92 206.578c.398-.08.755-.278 1.073-.556.993-.874 1.231-2.305.675-3.774-12.395-31.663-24.71-39.371-36.629-46.839-8.78-5.483-17.083-10.687-25.187-25.863-7.072-13.269-15.375-25.505-24.67-36.39-7.231-8.463-15.455-15.375-23.798-19.984l-2.542-1.43c-.994-.556-2.106-.516-2.94.08-.914.635-1.311 1.827-1.073 3.098l13.627 74.251c.238 1.272 1.033 2.463 2.066 3.02l97.332 54.029c.676.398 1.391.517 2.066.358zM24.279 76.628l.119.08c7.945 4.41 15.772 11.005 22.684 19.07 9.098 10.646 17.202 22.644 24.194 35.675 8.621 16.09 17.759 21.85 26.618 27.372 11.005 6.873 22.367 13.984 33.888 42.151l-94.274-52.321-13.23-72.026z" fill="#150035"/><path d="M120.857 197.281l-97.095-53.91c-.596-.318-1.112-1.192-1.112-1.947l-1.152-66.941c0-.874.635-1.152 1.35-.517 4.887 4.41 21.97 20.858 37.186 49.342 19.307 36.113 40.284 17.759 61.697 72.464.476 1.112-.04 1.946-.874 1.509z" fill="#30B1D4"/><path d="M121.929 199.347c.397-.079.755-.278 1.073-.556.993-.874 1.231-2.304.675-3.774-12.395-31.663-24.71-39.37-36.629-46.839-8.78-5.483-17.083-10.687-25.187-25.863-15.375-28.723-32.696-45.448-37.622-49.898-.954-.874-2.146-1.112-3.179-.636-.993.477-1.589 1.47-1.589 2.702l1.152 66.941c.04 1.47.914 2.98 2.146 3.695l97.094 53.91a2.752 2.752 0 002.066.318zM23.603 77.423c6.555 6.237 21.334 21.89 34.642 46.839 8.621 16.089 17.759 21.85 26.618 27.372 11.005 6.873 22.367 13.984 33.888 42.151l-94.036-52.202-1.112-64.16zm155.933 54.566l2.088 3.472-27.166 16.339-2.088-3.472 27.166-16.339zM154.808 90.93l2.088 3.472-27.166 16.34-2.088-3.472 27.166-16.34zM51.907 34.633l2.088 3.472-27.166 16.34-2.088-3.472 27.166-16.34zm128.642 157.076l2.089 3.473-27.166 16.339-2.089-3.472 27.166-16.34z" fill="#150035"/><path d="M196.259 123.785c-.159-1.152-4.37-28.525-30.352-42.509l-56.135-30.789-1.947 3.576L164 84.852c24.154 12.99 28.246 39.251 28.286 39.529l3.973-.596zm.962 9.642l.226 13.705-4.052.067-.226-13.705 4.052-.067z" fill="#150035"/></svg>