<svg width="253" height="49" viewBox="0 0 253 49" fill="none" xmlns="http://www.w3.org/2000/svg"><g id="Group" fill="#fff"><path id="Vector" d="M86.68 39.041h2.042c.465 0 .86.045 1.187.134.326.09.611.25.856.48l-.648.788a1.27 1.27 0 00-.581-.313 3.507 3.507 0 00-.814-.081H86.68c-.526 0-.928.127-1.205.38-.277.254-.415.615-.415 1.085v.007c0 .465.137.826.412 1.084.275.259.668.388 1.18.388h1.95c.334 0 .62-.04.86-.12.24-.08.399-.225.479-.437v-.211h-1.726v-.866h2.677v2.599h-.662l-.064-.578a1.22 1.22 0 01-.637.483c-.27.091-.596.137-.976.137H86.61c-.418 0-.79-.056-1.12-.169a2.246 2.246 0 01-.83-.49 2.117 2.117 0 01-.518-.781 2.845 2.845 0 01-.18-1.04v-.006c0-.385.06-.73.18-1.036.12-.305.295-.564.528-.778.232-.214.517-.377.856-.49a3.65 3.65 0 011.155-.169zm15.495 4.917h-1.233l-.986-1.508h-3.05v1.508h-1.091v-4.874h4.134c.376 0 .697.042.965.126.268.085.486.203.655.353.169.15.293.328.37.535.078.207.116.434.116.683v.007c0 .353-.081.659-.243.92-.162.26-.426.456-.792.587l1.155 1.663zm-5.269-3.895v1.45h3.043c.348 0 .603-.058.764-.175.162-.118.243-.3.243-.55v-.007c0-.244-.081-.425-.243-.542-.161-.117-.416-.176-.764-.176h-3.043zm9.77 1.458v-.007c0-.385.06-.73.179-1.036a2.09 2.09 0 01.525-.778c.23-.214.512-.377.845-.49a3.543 3.543 0 011.134-.169h2.12c.423 0 .801.057 1.134.17.333.112.615.275.845.49.23.213.405.472.525.777.12.306.18.65.18 1.036v.007c0 .385-.06.731-.18 1.039a2.08 2.08 0 01-.525.781 2.31 2.31 0 01-.845.49 3.52 3.52 0 01-1.134.17h-2.12c-.422 0-.8-.057-1.134-.17a2.31 2.31 0 01-.845-.49 2.083 2.083 0 01-.525-.781 2.86 2.86 0 01-.179-1.04zm1.098 0c0 .46.133.82.398 1.08.266.261.661.392 1.187.392h2.12c.526 0 .922-.13 1.187-.391.265-.26.398-.621.398-1.081v-.007c0-.456-.133-.814-.398-1.075-.265-.26-.661-.39-1.187-.39h-2.12c-.526 0-.921.13-1.187.39-.265.261-.398.62-.398 1.075v.007zm16.651-2.437h1.127v2.556c0 .4-.058.748-.173 1.046-.115.299-.28.544-.496.736-.216.193-.48.337-.793.434a3.568 3.568 0 01-1.053.144h-1.669c-.39 0-.741-.048-1.053-.144a2.102 2.102 0 01-.792-.434 1.865 1.865 0 01-.497-.736 2.898 2.898 0 01-.173-1.045v-2.557h1.127v2.556c0 .24.034.444.103.613.068.17.163.308.285.416.122.108.268.186.437.236.168.049.356.074.563.074h1.669c.207 0 .395-.025.564-.074a1.13 1.13 0 00.436-.236c.122-.108.218-.247.286-.416a1.64 1.64 0 00.102-.612v-2.557zm10.184 0a3.4 3.4 0 01.99.126c.275.085.499.206.673.363.173.157.3.346.38.567.08.22.12.467.12.74v.007c0 .272-.04.519-.12.74a1.4 1.4 0 01-.38.566 1.756 1.756 0 01-.673.363 3.396 3.396 0 01-.99.127h-2.986v1.275h-1.092v-4.874h4.078zm-2.986 2.592h2.986c.381 0 .653-.065.817-.194.165-.13.247-.327.247-.595v-.007c0-.263-.082-.46-.247-.592-.164-.131-.436-.197-.817-.197h-2.986v1.585zm14.566-.155v-.007c0-.385.06-.73.179-1.036a2.09 2.09 0 01.525-.778c.23-.214.512-.377.845-.49a3.543 3.543 0 011.134-.169h1.951c.441 0 .822.045 1.141.134a2 2 0 01.845.48l-.648.788a1.216 1.216 0 00-.567-.313 3.235 3.235 0 00-.771-.081h-1.951c-.512 0-.904.129-1.176.387-.273.258-.409.617-.409 1.078v.007c.005.47.143.832.416 1.088.272.256.662.384 1.169.384h1.951c.305 0 .566-.03.782-.088.216-.059.401-.163.556-.314l.648.796a2.017 2.017 0 01-.831.476c-.314.091-.699.137-1.155.137h-1.951c-.422 0-.8-.056-1.134-.169a2.31 2.31 0 01-.845-.49 2.083 2.083 0 01-.525-.781 2.86 2.86 0 01-.179-1.04zm11.058 0v-.007c0-.385.06-.73.179-1.036a2.09 2.09 0 01.525-.778c.23-.214.512-.377.845-.49a3.538 3.538 0 011.134-.169h2.12c.423 0 .801.057 1.134.17.333.112.615.275.845.49.23.213.405.472.525.777.12.306.18.65.18 1.036v.007c0 .385-.06.731-.18 1.039a2.08 2.08 0 01-.525.781 2.31 2.31 0 01-.845.49 3.52 3.52 0 01-1.134.17h-2.12c-.422 0-.801-.057-1.134-.17a2.31 2.31 0 01-.845-.49 2.083 2.083 0 01-.525-.781 2.86 2.86 0 01-.179-1.04zm1.098 0c0 .46.133.82.398 1.08.266.261.661.392 1.187.392h2.12c.526 0 .922-.13 1.187-.391.265-.26.398-.621.398-1.081v-.007c0-.456-.133-.814-.398-1.075-.265-.26-.661-.39-1.187-.39h-2.12c-.526 0-.921.13-1.187.39-.265.261-.398.62-.398 1.075v.007zm12.27-2.437l2.669 2.796 2.67-2.796h1.063v4.874h-1.113v-3.325l-2.352 2.48h-.535l-2.353-2.48v3.325h-1.106v-4.874h1.057zm15.587 0c.385 0 .715.042.989.126.275.085.499.206.673.363.174.157.3.346.38.567.08.22.12.467.12.74v.007c0 .272-.04.519-.12.74-.08.22-.206.41-.38.566a1.756 1.756 0 01-.673.363 3.384 3.384 0 01-.989.127h-2.987v1.275h-1.091v-4.874h4.078zm-2.987 2.592h2.987c.38 0 .652-.065.817-.194.164-.13.246-.327.246-.595v-.007c0-.263-.082-.46-.246-.592-.165-.131-.437-.197-.817-.197h-2.987v1.585zm12.298-2.592h1.113l3.127 4.874h-1.211l-.613-.993h-3.719l-.613.993h-1.211l3.127-4.874zm1.845 2.965l-1.289-1.993-1.295 1.993h2.584zm12.502-2.965h1.113v4.874h-1.049l-4.381-3.367v3.367h-1.106v-4.874h1.042l4.381 3.36v-3.36zm5.621 0h1.409l2.106 2.289 2.113-2.29h1.408l-2.958 3.184v1.69h-1.12v-1.69l-2.958-3.183z"/><g id="Group_2"><path id="Vector_2" fill-rule="evenodd" clip-rule="evenodd" d="M190.54 7.439v23.18h5.192v-7.168h13.692l4.69 7.168h5.862l-4.982-7.168 5.259-4.455v-6.901l-5.259-4.656H190.54zm9.347 4.656h15.107v6.9h-19.262v-6.9h4.155z"/><path id="Vector_3" d="M252.72 7.439v4.924h-11.858v18.256h-5.36V12.363h-11.858V7.439h29.076z"/><path id="Vector_4" d="M128.12 26.164h21.204v4.455h-29.579v-4.455l19.396-13.299 1.608-.971h-20.971V7.439h29.345v4.455l-19.396 13.299-1.607.971z"/><path id="Vector_5" d="M89.287 25.796c7.081 0 14.159.034 21.238.034v-13.6H89.287v13.566zm21.238-18.357l5.193 4.79v13.6l-5.193 4.78v.01H83.961V7.44h26.564z"/><path id="Vector_6" fill-rule="evenodd" clip-rule="evenodd" d="M180.185 12.028h-21.439V26.03h21.439V12.028zm-26.664 0V26.03l5.225 4.79h21.439l5.226-4.79V12.028l-5.226-4.79h-21.439l-5.225 4.79z"/></g><path id="Vector_7" d="M0 19.77V0h31.634c6.703 0 12.795 2.756 17.21 7.195C53.26 11.635 56 17.76 56 24.5s-2.74 12.866-7.156 17.305C44.43 46.245 38.337 49 31.634 49H5.127L.751 44.6l24.694-24.83H13.677v-5.155h20.52v19.77H29.07v-10.97L8.753 43.846h22.88c5.289 0 10.098-2.178 13.586-5.685 3.488-3.507 5.653-8.343 5.653-13.66s-2.165-10.153-5.653-13.66c-3.488-3.507-8.297-5.684-13.585-5.684H5.128V19.77H0z"/></g></svg>