<svg width="170" height="144" viewBox="0 0 170 144" fill="none" xmlns="http://www.w3.org/2000/svg"><g id="free-icon-shop-1067602 1" opacity=".33" clip-path="url(#clip0_272_1157)"><g id="Group" fill="#fff"><path id="Vector" d="M143.131 10.77c2.832 1.193 4.775 3.564 5.466 6.529.186.882.236 2.809.101 4.723l-.228 3.242 3.683 8.047c2.016 4.424 5.759 12.507 8.289 17.99 6.469 13.86 5.83 11.923 5.48 16.893-.316 4.477-.793 6.398-2.173 8.814-1.198 2.026-3.171 4.058-5.148 5.253l-1.781 1.054-2.995 42.047-2.966 42.081-.965.925-.967.956-69.04-4.773-69.038-4.805-.925-.965-.956-.967 2.887-42.272L14.739 73.3l-1.613-1.324c-1.7-1.423-3.395-3.776-4.326-5.983-1.007-2.429-1.25-4.71-.943-9.064.337-4.785-.14-3.733 6.047-13.164 2.123-3.263 6.855-10.531 10.48-16.17l6.585-10.241.468-4c.346-3.14.583-4.303 1.186-5.378.964-1.793 3.113-3.659 5.026-4.393l1.466-.548 51.254 3.55c47.983 3.32 51.346 3.589 52.762 4.185zm-104.263-.71c-.763.692-.948 1.113-1.17 2.96l-.276 2.152 52.547 3.703 52.547 3.704.026-2.139c.034-2.232-.391-3.254-1.679-3.904-.331-.147-23.202-1.852-50.836-3.769L39.76 9.287l-.892.774zm92.072 18.281c.077.223 1.903 7.332 4.068 15.8l3.97 15.421 9.54.673c5.279.372 9.516.577 9.465.419-.084-.13-3.178-6.864-6.918-14.978-3.741-8.113-7.025-15.233-7.325-15.812l-.548-1.032-6.175-.435c-4.816-.34-6.15-.34-6.077-.056zm-19.144-.884c.058.5.711 7.528 1.475 15.617l1.409 14.776 8.892.626c7.008.494 8.898.535 8.827.22-.079-.192-1.905-7.302-4.067-15.801l-3.973-15.39-6.329-.446-6.36-.449.126.847zM91.533 40.705L90.445 56.14l8.984.634 8.984.633-.093-.875c-.06-.47-.713-7.497-1.475-15.618l-1.412-14.744-6.39-.45-6.422-.453-1.088 15.437zM70.167 38.33c-1.893 7.933-3.525 14.8-3.65 15.256l-.246.852 9.015.635 8.984.633 1.088-15.437 1.088-15.436-6.422-.453-6.39-.45-3.467 14.4zm-21.551-1.054c-3.334 8.111-6.139 14.895-6.244 15.074-.115.302 1.762.527 8.77 1.021l8.892.627 3.468-14.431c1.892-7.903 3.523-14.77 3.65-15.257l.214-.822-6.33-.447-6.328-.446-6.092 14.681zm-21.75-2.215c-4.872 7.506-9.157 14.154-9.54 14.748l-.67 1.131 9.54.673 9.54.672 6.095-14.711c3.33-8.08 6.136-14.864 6.244-15.074.114-.302-1.147-.453-6.122-.742l-6.274-.349-8.812 13.652zM139.27 67.743c-.207 2.933.338 4.895 1.991 6.966 2.65 3.352 6.494 4.709 10.626 3.759 1.986-.45 2.566-.75 4.318-2.271 2.412-2.095 3.209-3.714 3.431-6.863l.148-2.1-10.188-.718-10.189-.718-.137 1.945zm-24.689-.996c-.077 3.284.51 5.094 2.231 7.077 1.751 2.016 3.489 2.883 6.299 3.081 2.809.198 4.652-.417 6.668-2.167 1.983-1.722 2.817-3.432 3.203-6.694l.312-2.677-9.324-.657-9.323-.657-.066 2.694zm-24.7-1.74c-.076 3.283.51 5.093 2.232 7.076 1.75 2.016 3.49 2.883 6.299 3.081 2.809.198 4.652-.417 6.668-2.167 1.983-1.722 2.817-3.432 3.203-6.694l.312-2.677-9.323-.657-9.324-.657-.066 2.695zm-24.698-1.741c-.077 3.283.51 5.093 2.231 7.076 1.751 2.016 3.49 2.883 6.299 3.081 2.81.198 4.652-.416 6.668-2.167 1.983-1.722 2.817-3.432 3.203-6.693l.312-2.678-9.323-.657-9.324-.657-.066 2.695zm-24.7-1.741c-.075 3.283.51 5.093 2.232 7.076 1.751 2.016 3.49 2.883 6.299 3.081 2.81.198 4.652-.416 6.668-2.167 1.983-1.722 2.817-3.432 3.203-6.693l.312-2.678-9.324-.657-9.323-.657-.066 2.695zm-26.571-2.463c-.222 3.15.34 4.864 2.435 7.277 1.52 1.752 2.052 2.13 3.956 2.854 3.958 1.52 7.955.716 11.048-2.23 1.928-1.82 2.742-3.686 2.949-6.619l.137-1.945-10.189-.718-10.188-.718-.148 2.1zm119.713 20.539c-6.705 5.33-15.29 4.755-21.157-1.367l-1.735-1.798-1.97 1.537c-5.354 4.214-11.934 4.681-17.712 1.264-.863-.526-2.328-1.746-3.282-2.744l-1.735-1.798-1.97 1.537c-6.604 5.212-15.187 4.607-20.994-1.48l-1.735-1.798-1.97 1.537c-6.7 5.267-15.248 4.603-21.197-1.68l-1.876-1.994-.9.867c-1.803 1.828-4.865 3.442-7.735 4.109-.79.192-2.662.34-4.183.357l-2.7-.005-2.737 38.84-2.74 38.87 37.049 2.611 37.048 2.611 2.306-31.826 2.336-31.824 1.082-.824 1.082-.823 19.57 1.441 19.598 1.474.773.924.805.894-2.149 31.807-2.179 31.804 6.174.435 6.175.435 2.74-38.87 2.738-38.839-2.704-.376c-2.918-.423-4.736-1.048-6.761-2.246-1.666-1.017-4.12-3.175-4.588-4.015-.19-.386-.418-.681-.51-.688-.093-.006-1.107.73-2.257 1.64zm-34.813 33.91l-.936 13.275 15.437 1.089 15.437 1.088.935-13.276.936-13.276-15.437-1.088-15.436-1.088-.936 13.276zm-2.307 32.726l-.936 13.276 15.437 1.088 15.437 1.088.936-13.276.935-13.276-15.436-1.088-15.437-1.088-.936 13.276z"/><path id="Vector_2" d="M73.486 92.489c.362.15.912.716 1.25 1.205.591.848.58 1.003-.482 16.069l-1.072 15.221 2.183.278c2 .234 2.272.346 3.009 1.329 1.082 1.379.995 2.614-.27 3.828l-.967.956-25.817-1.727-25.784-1.755-.956-.967c-.78-.8-.94-1.183-.864-2.264.076-1.081.288-1.438 1.173-2.12.952-.74 1.299-.808 3.058-.684l1.976.139 1.183-15.461 1.183-15.462 1.082-.823 1.051-.826 19.232 1.387c10.559.744 19.504 1.499 19.832 1.677zm-36.421 16.67l-.936 13.275 15.437 1.088 15.436 1.088.936-13.275.936-13.276-15.437-1.088L38 95.883l-.935 13.276z"/><path id="Vector_3" d="M70.309 137.564c.96.471 1.847 1.961 1.778 2.949-.04.556-.43 1.242-1.028 1.82l-.968.956-13.467-.856-13.437-.854-.953-.998c-.782-.8-.94-1.183-.864-2.264.076-1.081.287-1.438 1.173-2.12l1.051-.826 13.057.952c7.163.504 13.33 1.063 13.658 1.241z"/><path id="Vector_4" d="M33.26 134.953c.96.471 1.848 1.961 1.778 2.949-.087 1.235-1.612 2.617-3.016 2.735-.968.087-1.3-.061-2.11-.894-.81-.832-.968-1.216-.892-2.296.076-1.081.287-1.438 1.173-2.121 1.082-.823 1.929-.95 3.067-.373z"/></g></g><defs><clipPath id="clip0_272_1157"><path fill="#fff" transform="scale(-1 1) rotate(-4.032 86.894 2419.117)" d="M0 0h158.466v158.466H0z"/></clipPath></defs></svg>