<svg width="18" height="18" viewBox="0 0 18 18" fill="none" xmlns="http://www.w3.org/2000/svg"><g clip-path="url(#clip0_272_1095)" id="vk 1"><g id="Group"><g id="Group_2"><path id="Vector" d="M17.84 13.025c-.049-.08-.348-.731-1.788-2.068-1.508-1.4-1.305-1.172.51-3.592 1.107-1.474 1.549-2.374 1.41-2.759-.131-.366-.945-.27-.945-.27l-2.704.016s-.2-.027-.35.062c-.146.088-.239.29-.239.29s-.428 1.141-1 2.11c-1.205 2.047-1.688 2.155-1.885 2.028-.457-.296-.343-1.19-.343-1.825 0-1.983.3-2.81-.586-3.024-.295-.07-.51-.118-1.263-.126-.966-.01-1.784.004-2.246.23-.308.15-.546.487-.4.506.178.024.583.11.798.402.278.377.268 1.225.268 1.225s.16 2.334-.372 2.625c-.366.199-.867-.207-1.941-2.065-.55-.95-.967-2.003-.967-2.003s-.08-.195-.222-.3c-.174-.127-.417-.168-.417-.168l-2.572.016s-.385.011-.527.18c-.126.149-.01.457-.01.457s2.014 4.71 4.293 7.086c2.091 2.177 4.465 2.034 4.465 2.034h1.076s.325-.036.49-.215c.154-.164.148-.473.148-.473s-.022-1.443.65-1.656c.66-.209 1.508 1.396 2.407 2.013.68.467 1.196.365 1.196.365l2.404-.034s1.258-.078.662-1.067z" fill="#fff"/></g></g></g><defs><clipPath id="clip0_272_1095"><path fill="#fff" d="M0 0h18v18H0z"/></clipPath></defs></svg>