<svg width="16" height="16" viewBox="0 0 16 16" fill="none" xmlns="http://www.w3.org/2000/svg"><g clip-path="url(#clip0_272_1085)" id="free-icon-whatsapp-733641 1"><g id="Group"><path id="Vector" d="M7.422.019C6.215.134 5.306.397 4.319.906A7.963 7.963 0 00.844 4.453a7.076 7.076 0 00-.579 1.519C.078 6.697.022 7.137.02 7.937c0 .4.015.832.037 1 .172 1.282.572 2.385 1.244 3.416l.225.347-.497 1.466a43.703 43.703 0 00-.488 1.478c.007.006.688-.207 1.52-.472a87.428 87.428 0 011.537-.485c.012 0 .14.072.284.163.144.088.444.25.666.356a7.98 7.98 0 006.4.228 8.06 8.06 0 004.787-5.406c.197-.75.244-1.16.244-2.028 0-.869-.047-1.278-.244-2.028A8.057 8.057 0 009.781.2a7.485 7.485 0 00-1.61-.181 13.867 13.867 0 00-.75 0zM5.515 3.725a.48.48 0 01.163.172c.09.165.853 1.994.875 2.106.028.14-.113.381-.422.731-.325.366-.394.482-.366.613.054.237.775 1.197 1.222 1.619.69.653 1.735 1.275 2.2 1.309.24.016.325-.05.694-.538.166-.221.34-.443.394-.493.119-.122.297-.147.5-.072.256.097 1.828.862 1.94.947l.107.078-.02.331c-.043.85-.343 1.29-1.13 1.675-.75.366-1.338.356-2.485-.04-1.543-.535-2.36-1.044-3.468-2.16a11.402 11.402 0 01-1.4-1.675C3.575 7.266 3.29 6.444 3.375 5.61c.069-.668.303-1.162.775-1.634.228-.228.525-.322.975-.306.19.006.331.025.39.056z" fill="#fff"/></g></g><defs><clipPath id="clip0_272_1085"><path fill="#fff" d="M0 0h16v16H0z"/></clipPath></defs></svg>